<mxfile host="65bd71144e">
    <diagram id="yJfb3eHW2R5mw80pbmJB" name="Page-1">
        <mxGraphModel dx="899" dy="827" grid="1" gridSize="10" guides="1" tooltips="1" connect="1" arrows="1" fold="1" page="1" pageScale="1" pageWidth="850" pageHeight="1100" math="0" shadow="0">
            <root>
                <mxCell id="0"/>
                <mxCell id="1" parent="0"/>
                <mxCell id="4" value="" style="shape=stencil(rVrZbhw3EPyafSV4k/3sOP9hwHK0iCIZspzj79PMgtxhcaZGAvIm7XbtkM3qqziX8OnH45fvDxdvf7y9vvz+8Nf169vjJfxy8f76/Pjwen3Tvy7h8yV8+vby+vDb68vP56+3/79/aZbtrz9e/my/8PcNF40NDeTtP7cPiin1vw9+vZk/XZ835sFInsydM5Ha1zrbZyOW2tvJ3nvjhNlnN9sXUz2zj2WyD/oJtQ/z+kM+sfezf4KYmJk9uD8mul9vqkz2yfYVHtgXsI+mpo/YV+MDXc+83+yMUD5YsI9GuD/n88qlM/DIfuZD8cY6tn4B+idjy7F9NCnO9tEEwudsskf7TH5fd+fQXsj6xYSC63fk9501khAQCSGcNzkioEQCUIfAEzI9As0I1iLAkTN2xeSMAM8AYrxHADs1b01ZAYSmLUvFDwGCSYuXAgv8uDA1m8QifyxgA6gslEfmHIDSo2kfIJ05G0AhXApuWVLl1SMsT9Bnkj2E1LfYAdVSL4Vq0ryk6ii9ozNpjtDqaUaKsftkACJN8bH2CB4ADVFyDsmZPBepqmmHeCklZGstdNNaBCJ4qdIyq1UA6F3FVJKXtAzE+eDEUrZqHbDzkkSfyZ4gPeQHQIOWUKM4rD0KyAzgeykbAC13JB5a7YgIYNVcU28qCMiEGhqQcA4KKIR8Gl9u2QMr0BpfeHDawxEuaXxlWZZETrpqErAIYCet8SWLl1jW0HCJeTkHtumCyVgBrE1S9qcF4Ag1lP1l2YNjjYDvX2/JR05altzaAMStEncOzpKTloxpRjzlkgLyfNLqN8ZWBUA7rKnSk8IupQfkJnt7tqSytA6VL6ksHZnSkQOgoBRLW3QF5HkPOfcIOQKU+Rw0PVeSZmTMgGMKKGdeQoDvg9YhAOYe/YTRu+CgF0/IVzCmtdSzRredNABiLzGHXJr3oA0R3UNGL/lE67QCIHt7bU5Ir6GAMC/JVR4PGdO9S9ytCTOfG63vEQBiutABSMb8O46BDtzNHnxkEnNRwoB2vdc/sofqY3t1OdxvBXsanBn7GMuzcEZFwtLpqpEugL3ncWMj2J8EJoSNO0tGsP7TBByQD5bnLujaAh+gCyoSsRP20J+zvRKQ20cH9oEXTfB/oqOq8q1YWD8tNwlbee28efz6AP4sfD1LPNJqlnoTfufPyfoxxfEMl/r8d+fzSX4QjHfaqGXkv+1yxmGPg/HueA0QjMfE7Et3x90/dP0F5RrXM/z/ZQ8KsPSyuW9feziN3490JlIAJqBCZyIFwMTSXMQoV/HINCZpZ1A75TedAVO0RHpO28jS9JSXYVa7G1o2pAstI+w9r3uCIlscjeoRAKVjbwLfdF26zBMvySo2M+3SWpQWc6bZfQdRHB2j9hCJDo9tGzAhSI+pQwCMRZ7376MP3cg1tIgLFqk2z7IlVXzCvY4eTjmQBoSqL63PyQhgh72Op5ujee8ELLy3W2fskzWtU7zQbLmjE0gfcd+rRCiAHPWO1iE0EeyoKULz645eI3QYrIt+eU9vR5oT9ISNTExoq4uXKnVrWbpOBTB5vsU8cIkPtCUuXOJqe/F4JyE8l7XEBW5NvZc4UkhRr0m0N9dkWoEakZatHLFWy7jwPdKRw6LBMh25XVfCObh+RbkPWOltqX6ZdL4BzYmLVFo3BeT5SnXkuFwyapQn9gRtgZcLgMQuYuoCSJRLIS1LivTgQsAxoN16EC4Fh3Ow5pFEAK2lKghg6d4vJahyqcAv+uWJWKijFAg8mtrY3VDTNgQB7CJmvWdsyZPd5y83mQ3Arm8Fb9BPnuAWObIB2BV0wohrm2YXxEvWOPGS88vt08kTRsi/EyB7K2K5eIcYLAUkvChVe0bV5TUYteevhbjFnt0u2H6i25aV/P7aE/Mrfdu/HfZ6hMSfFl/jyZWqPBb9mRNNXxZFyOzpDZLFoVvrEJvqLeZfLUNM5bRdoxnDmFCVxOLEGrmqZbGQa4Wgk9XOvMpUMIdVWSPCE/44nFb1E9avOcxBLtOK6fBVB+fovOPwnqnQ+upQs8nUmx4lv3wSvEg2+kqdx3Y80Tne9yuJuznzjF+GeEr8gPUr0bwQsA0f6t/70mCitW552TBTDSXgEME5Frsuf+cMezPrgy9inprrH/d3Pr9dn55ur4xuv8d3RPWj2/ul4fO/);lineShape=1;sketch=1;hachureGap=4;jiggle=2;curveFitting=1;fontFamily=Architects Daughter;fontSource=https%3A%2F%2Ffonts.googleapis.com%2Fcss%3Ffamily%3DArchitects%2BDaughter;fontSize=20;" parent="1" vertex="1">
                    <mxGeometry x="100.97275113182911" y="363.4409963977371" width="203.32040601884773" height="85.53617324924835" as="geometry"/>
                </mxCell>
                <mxCell id="5" value="" style="shape=stencil(nVrJchw3DP0aXVlcwO3sOP/hKsuRKorkkpXt7wNmiq3mQ/drJbfRCBiCWB423qVPPx6+fL+/i/7H2+vLr/d/Pn59e7hLP93F+Pj8cP/6+Kaf7tLnu/Tp28vr/S+vL78/f739/f3LoByffnv5Y/zCXze+4GoaTNH/ffsiOqn/fvHzjfzp8Xkhb2Uhz661c/LoQlzIu6uBkcsqTEiuZ0bfwkrfXCTSJxf6eln9pjD6XFf65nI/pxfnV/mTuEzuKy62lb66Sn8/r+qU4Dylr6u1hMuTnYffr66R389T25s3hHmjE/rsV3qh/pBdWfWTm/PEH9QZV/lLcInYN7u+6qfIlPCQvji/ylPUXsLowb41TQue0Mvqz7U5ofKUVZ9N45PIU11Y5WlC6Rv6m9J3Ik9HfQ76RNAkoMO17AJxiBBdqsggRKMDQDoydHLloP9ebdAK9VGFHA8iVSfkhOidgBUUtRgqKkjJytCdJ249/DQgQydaUkP39YTuZ+gdA2OYuLwxBCcEKVKeEm8MakriSkl1smJpT9NZjrEuTK3vGCiYiitwB6F3GGAIJ2Rqh+zR+ZQhM3wUF9aA7mV61zFDRURSBmEi9ZmvdwyVQVKc8bVjaCSmFUKhohgnELUW/T1zaZZlS3PFiBQIQ/XGlzSzEC3VgMCqrtGJ4WqcV9wxRJKpNBFAqlJvZUBWxWgpukLsUE1y0BBlMKO5JkKIelodNW/Qu7tI7KDZCbG1zQrlmCEeMGTGkEwGai4Rw2k28BkZIrGDZgPMoY1rqWIRMBiI4YbE3YhEDKdaF3OHRE5Qu4o5IRNvHeBekaERkdSZk8lArK8Y8QUB5GczcMxgaiUVMrE71Fn67hgaE6kikF2ptRq18nKvG/TWoO1MpIIZSIHnggE6GAXPyhmiKYkTY8hYCWiKYeg9oHe1w2gCSIgqAwSQdArGw5eg7cnTHc8YyqpW8bPPPWMA906F9sHKAFCZeDUzapf1Dlpc0xBNs9PZ9baNMwTTPFNfMmActqA9Y6ir84WLEI2mv6Wl96BffS/Nku6MvkD/T6vcgxvz9ie56IE+MQUpPMC8gwK90sP0JfDY1HIyA/2VWzfUDwM8M49IPPRlJu93+1J7CQJqngY8lX+Vp0ysOY3K1UEr7UlGUCI99c+ELUnl4JtwXFbpOEL9E9JBmQ576v9Iz7qLEV8J9M/6HUufrgCi4PCRAnucncc7Paukhj4xHmk+TtjrhNk4nPoDxhcbfw1/w/hlbYhNM5Hjp+BkIdEm5CgeWf3+P+jr6m/BT42dMeBAdwvp01QPFms81WcM+TFEZjbIOHGKjTZqo8VfQSuF2eudMTTIYnlWbWc1GrQgiY/VRxW4xoEIHbONOnO9tDQ66NRKNkIVmOgcQhkKjI639vOYoWHslMjrmzYF2A1rKbo3bMnrBVz0iT4bQ55NyRkD4Iv23BTwOgLe6FdJxAWvPTl0/ds3HzxiRDkDvYa+obbs3NSAkn0b4Jx5H6QFZQg8ggAn9czAa1+8dKGLBc08EU7ILrAY9ViOD7WyUXvHrn+gPzHcaEbN+JKJ1Db33zEwZ2plTkL2JxA7jOG98SU2mGuC05dxaWIHbahhst35xqZFXMl1XnM2OysU2hbVhk3IyABES6PHN/NOOr7cYv6D7l3lgIE1OnWru3YRx9BYkREyuzKwFFQ9luYDPYmWxpC3IQNbq5RiYrrTYuNgUN3ptnmMwqE68Rxcx7S94BF0oVqdF2Qo5NbZRlCnNd/YSVjLEf+WOqcze99gDDJ3HDvvYysGCQYrK+0z0jZx3UVQIlpKYvw7X+23MMkJf4nQjKWFaimaPaMmJSaS1vLoGonmrOhNRok0s4dqtBTnQOOYIWO5rgye3GFsY80SI7AToslZkUKfNhgw+7u4g1lZX9A3LKXfS4Nj4MP2YaiIPqlAG3g6c8pmN9x4sOHuTHMwCx0zgmmBep0ZIWm6Y3WP4BMSTS1s7m9a6JLpgifhYi53OjNIqJ+8LdNP6AWetEQKp2aXLzytRWwOJV88iYKtn0Q6A4tYRWovyWaKEUuLVOi+LJhumKfMgDXnePRE7utnPt1yMs+wHqs1BbFI9O8RgAJfDXgc4RW6sDTt2uYfHyOPtMv2WBwEurXzdlzMoM3P4c8k964Sy3rsxz0d7Xh8neFpavGYf6/cDMZA/NcDohSX3TxF8fwJERZMXO8BK2Nu1f/8wvOCXD+8Pyb99vj0dHuLuv8/Pj7Vr24PV9PnfwA=);lineShape=1;sketch=1;hachureGap=4;jiggle=2;curveFitting=1;fontFamily=Architects Daughter;fontSource=https%3A%2F%2Ffonts.googleapis.com%2Fcss%3Ffamily%3DArchitects%2BDaughter;fontSize=20;" parent="1" vertex="1">
                    <mxGeometry x="317.79362457361503" y="376.77747529966405" width="255.78560708409645" height="79.2887999462107" as="geometry"/>
                </mxCell>
                <mxCell id="6" value="" style="shape=stencil(7VrJbhtHEP0aXgu9L2fH/g8DliMiimTIspP8fV6H6NF0FefRuhlwbpTYj13rq2XmFN99vf/45e4U3NeX56c/7v46f3q5P8XfTiGcH+/vns8v+HSK70/x3een57vfn5++PX66/P3l4zg5Pv359H38wt8XnK/i2kAF98/lP9VLcf/958MF8HB+3AFClOgWQKkSGwHgBgVIkvwxIDrpYQV4CZEAsvi0AHKVkgmgS44rIEoNx4CEr/0CSF0SUTpVyX0FpKnVVUD24tQNTgLxw6vEEwAzZGKlnKXnFeCkESsNI64ihSKBOC43KWssBS+tEEAXXxYAwvEGQAWfTzQ0IFJbrdQkMatW6XV1gzTiZ5wPq0BReqfnXVTnQ+XnV3mC5ETPx1VfeIDZp0pVHuBR1ySu8jgpTH542KnzgdmzS4/qvCMBURDC+vcdkR9MUoo670laliBJn2fcVaL4rM6zgMb5qgJaEvEXqNPEgyPxBvn7msOZyx800XlHqRQG7SaFPfEwAFmxip82OwIokw4dmM+c1JV7QXTUSPDpWj9ApY7foKIaZO05b3UFyBIZ93apK5VmJ5klZtflAHyfuEjK09CKUqm5AcFIuQWANVZLn9F7BGirH2qY0XXkB8WmtUhisQQ3raHReP6MgrOK1HADA2RNwN3RoplMSeteKtEhBYlrxvUghURrbNMmGyBSpWOaHL0DZNZPOd2A9UQTCI2EBbDw9qa16JwEfNA53YtE4oeqibjXKeP1UNLd1LARyQbwaF9DD27zRCCfdYICwDRAKQgGUIlIoc9Q3unAYjVWXT371hhfj1XYfE1Q+JnVW6SP1iFRGrMFEYBKAKCUoBzHyb7CSlUDWIVrWResnqlZwRAlmBtIgiI0sxGJtbW9zWTZAdiU101njvRxJJYAKF0DGCsBoDptaBX5DRrQ5ux6KFLTgMrM2g0rgZwZYBsmdoDGzFpn9/7aXvGGdVgx6ytYTYRjW9SAwsyUjas7j75kqLLRoWRwu0pqjHksIZKePHulnQMAmlwL99wW/ruEYMPw6+/tAKxiQeJgcpTtSWBESxuZWanpWWnowEKj6+iDVmwaGKFm/UDMuovmvat5VjcbTFyJaJKUjaz4PV20Nq468lwzN9CUM73AD2T1WxHO5BC8Sfi1ISWaBkRyQ71mWCYSKqmmy0Z9jWHXMjhrddENeBMcdE9XTPvQaAuEjiYHowPrXLvp77mVxoBuzMroFX1fNvHKZkV0lsl4mnUDSa8aB5MQ/rY5XWjhBQspqnQztK4rsK13tyGrz/XpdUDVDVNrtO5CJKVCq3QdCzeryRIANm/EKH6NbQyKnYiEyFNzX+MlKyVd2NuNCd/NvnYD4CfY/G118FQHAFRbifmbtZUAqCp6Y8IfN6zJcGuHEDVPji0FcVyO+lnA2IO8CTA2LWwnG2ejsNvlJK6DUjplviU2foh9sv8hQK3IEu3Ihg6rSGFb1hwBilpUZk4acfYuG8DRASInvcvxhbIGAEoHH2ZBOtzlrADOAb/iwwC9HP//YcDS7/xcDwOSjodA7V/sc1WakSVr+6CyU4dlvR7yiS7RoIGKCN8olQKghlvo3PgDk6YeT6BFZEZyerUfAx1gslnHjiaUpVnWZJ0C30F7/QA9VQrA16pjy9uS+TrAlINcaGuBeqReMxh2Y4Ck90lwZSFkF9100waodLgIRS/RKuiLrUvdFGADZMoXYXvstAOwhPZdJxAAhe2Im47WASBm9WbJAMCNVjsbpdkaw5vXPQBgJOCtHxL1AwChaQBb1QPg1WOiyJUuxkpxTnFHAMWs6Gvp84xiYinMqezQrG96T+cHAPjw+lrQ5/PDw+Wtov33+jUi/OvyClJ8/y8=);lineShape=1;sketch=1;hachureGap=4;jiggle=2;curveFitting=1;fontFamily=Architects Daughter;fontSource=https%3A%2F%2Ffonts.googleapis.com%2Fcss%3Ffamily%3DArchitects%2BDaughter;fontSize=20;" parent="1" vertex="1">
                    <mxGeometry x="170.0092377882703" y="326.6335037916049" width="63.572726418088564" height="75.47210764831061" as="geometry"/>
                </mxCell>
                <mxCell id="7" value="" style="shape=stencil(7Z3brhy5DUW/5rwWdC1Jz5PJfwwwntiIYw88zu3vQ8ZTdbo3u1chAQI4wHnzRewqSbxsblKql/rDb+9/+vXdS0m/ff3y+c/v/v7h56/vX+ofXkr58On9uy8fvtqfXuqPL/WHXz5/efenL5//+unnb3//9Scf6X/6y+e/+S/845tc3reUXKqkf377l7S1+u9/+OO38R8/fLof35eMXxPH71XG7wvHryHjJ/3+2Mp+Nz5veeD4tmR8bzh+bzJ+8e+P+/UsW7v4/SnjV8bx/X596lY7jq86fuw4Pue78W1LvF9jyfjK+tOqjG+0nqafu46n9+m6/jae1rNu6/73+7YKjM/6/vPYwIfj17buXyenrcN+za3f/3wuh8E9HG/bJePbNuH9bXaizuNY4Ifj27Ea5/i1FZhv2/K9Opi91PR8/Km95/h2KNST8UV+f6D+123eq3NNW4b59q3cr0/N2wT9NPO9f/9atkH6n3SDa2WHVbbSgwBZcAtTqFtik6x7mAPZgClpUYECm2A+fHRd1R3m4E5QnmBhANTC9VT0yCwPJl3Mb4nfnYeqPBYIlul7T5qdtnTvee2ZBXba1kRCk8+KnlCPUHEKlC2RMfRtvxcwa0brseh9PwePzxDO7AlTwh/7u2rhReZgAYqeUDQA2rLiKuVDmW9Uo4N62xN2sYeMPtgmnYMBkU3XACpMoMIrtaRR2d0Sue0SnpDQpls/NOfGHmhZm0WeovtAutRmMNGKUKEnDf2mSxVijwk0UW9baAqG9gSJbg3RrM9B7KEcAenZKjWBpwlN1PZBXOXcKphDswCn4xOonilGvzdQ85M0AXNKSWc8YddMVRUxNETMJiAh2uJLoSlHg87oWFsEDZUFuiZFjmvolXaFVfYE8pNtaVrkIY+MIatuu68nY6hbk1VKhwE+Fuga1S04dHqlcWRyN+ZGqtHX8d+nQMeovp9O7hTg7GWvR7A5BfIRLh4LnPb+ag6Vxu8a1A1+AmrYx5H9vaYjGTzSPtUjFfTzNl7QoaWboBU2votP3TKPF4iR0V3sZ3ZwM57WZwWAgXYz0gFlX9+f0lMbX3W+5E5tvNol0hU2fgpQPSL1s/FL4D/q50gaNBuGj3GyJa/jyYZHUl/KztrH33vGgemgr//9+zP2Mn2Q988XCrr0AeZTEuywabQEWAs3FwKSYjvFRDYZbN4WlUCCORUFzbaqtEq7ZtmebABY2/uDNLXSKwW/aCB30aSbOhYDuQSlTKDKHCYyj/sZgm8EiOqwYCDhpi40ThNoQwXQu9cjBN8K0KSLhkwXIOUrxwvczoGekMPGTfbAhqayClDGZgKa/U+OaQG6vOY/TwWSChD8cgGZ9I78gk86cCQY18oBGG+SyEGrVAKvO9Bzmy4pc9Z4p2tgMDKvUgu5yGRHZnlt8K2IjnpgOwsm83vkF9IBW5/61nsBcxq0qkvLAx23bQR7Yzp4VKW/F9LBNj4mkEQVjMBPO8HLAoJIvCRBEKYGQoVLLiaQRfHagVqfLarWRAbmLiZQRGAhGTFy8KsFaX8TEBzp8Y2BzB78amKk14NfJWhuAqKqHt8Y+kjS6bGBwbnWjtbhaZ8J5ChATzBwFQU4f6kxgtIrnWDtRgDh2wjc8zyczjOBHgQKAZOhJSELV+j1xoOAePWEEN+oyuDLKnNoB4p9ttMKfRLutGurmOg8osUzi8si0LmyVQIjWa58sebOCWked5XiWwfWAEYL4apjOjP2QDCWYxkeCwSS1AIigasZEtZcEFyZgGb0AyOQC0hQX7hKJiDL6kk0P0EYQI/SLCCY1Ys3LLALZs1HTHoqICZaMT7MmNjvmEnPGIEq2oMJxDl02odQObQoSnHaBGSnvWJFq1RDplsRIJqArFJJyE/MFto7JuZwJiD9KbnxsjYNWblevdJcKkARaPaDoro1UVrWrj0bXmXgJwiLk7lLZe7qjE0AbXrXsoEJoInuwWtwxWoOzbBs0tSZYAK604WVz5x7UwGcw9TapO00xWkXCKpBSGBOpZO9ek/tIfEJXB+ySQ9xxhkzIBOQYmbZsaJkOy1OwPwSvlLXjasD47RZnBRkW0X4Y25G6K6ejmT5mecTd98n8soz6ytZ7ku4NQZFT3JoDoZd7l/JsAF5jbGU05gNvYYJyMZN5sdMoEiye8F2L2Xf186Z4lJOY3F+7wJDBSavkuRxayFrYgK9qQB19I2T0bsRwBrC0uK+CWCKP9WRmQAmr6HqkxMTxiahW724MDMVzpgA0g5DQd9aXAoJTROLU0UTkI4d0w1cppBmmcBO1ZOhbI7pdyH9nkebx40FIV904tpTICEr6PotRt0PsPzMzzRpIEhocvNs6DsdUzvc7TPnKnzRa9b/zH2LQXghmDGcpIq9Y3ljhgJ/Y9c3u9JwrSLXYlFxhnrI5LgrRaDKztWgwBAsvRgwLU0gLsjQFSisi+rmyiEfyAiNTftrgPfUE+TxI2Svk54Q+KKSMKd5DQc3k6Yyk7stWaWdVynELO8t5FfS3DKhM77x7jfKRHzoOruAbvhQ6rTwmCYM0+JlCurauONlhaqot+VQq3VT5GoCleZQQm95Q9dnBiGhvRXkpc3kRF1bwogyQxitO+PKqa7PNo6IOxMowiU2BtMzMN8NOSybdAnMBvI/S3vYXFtpp5N2ytaKNUtzTJJnmQBx6yagJHDD6vQKrUreFUqOKSt2qB2N2p8QSWAWiHkWkfEmIJ0OdWLnuAeIULLAyL5CX/dkbQ0pR+UA4VGx6aSJNZ4BklVu6Yo5u+1Dp7gberoufKsJ5GBxSOeE3vTKHSful4KJElqfAVa6xZG7T8HNVA5ySWk1fyW2ae0SaAi+Vw7FqYaw0k002DQ5sscCHIG0IjexTdtjnPSDcZ3GAVNVAaL7TWAPzRfURG0CwjBdOeNdy8GV+3dNQCvUi/1SONFikIwy6tW1jO9ENmONEpAunWNbJfTvNp50Dv27O/I/K2kZ0ltUOE7HKIqlI3MzoQaOrjIchrSsCeHPribaFh7PtLxshsyP+J8ZDgp5ixULpJC9oqsM3eajM5dYlGF6rdE9y8DFVdq6YX0gB9ohXRXYpInEFB77Zt+Iu98F3oi7/w/iTonpjv1/D55Qrl5J1NW8J+5D4BLd8/BOi79/ZRefqatQISNzV9XSnfa2YK5ZiL/3MyJcBI+FGjpE5r5S8E/FBvR5njG7QevEU3iJWjK/C2/cAtjozIc2nYOfkaY5tHDQZmI3j9e0xW107o94K4L/LvBWBH+QvX5vRfDx4BwZUuXB3Wc+7G0Ceio5M+0QU5TGqxSUr5w3mTxTb4EzlbvbHOmGQ8bYwtRCyt6Rhps10A4DSYEZzhq0s8/qWYwbMd2FVbIoqqcZOHuNgd0bvVhAJ81HDF0g3jRwAX9EoGP3gguEs6GU+fmkpctwoV9yvBQsDnsLZvB8jVsFRkC63JY4QqqY+ejmCFefXJxN9LRNAnvDZHS00BPLNj3iGV1O2UfRIkq9OP+YA0PbsV721ud+Crz1uQeB767PfYTKKDPle6hC1swHjkIxy7lHekLgKfxeDD5Sq/fEcPVrhCrkxR0rJiDN/X4vxn9k05mZcn9COLZ7ce5YymUXJy0DV3kB7n2jw7kpPH831dvnHQsW0RzyhVsKLSF+eJ10b1enYUCAfLGfvxNV4rNffi44gEo8TxfSuNr4Roa3c8GHwNu54CDwHZ4L1qJ842PvJehSRhLOdSkcbUSbjhdk7ch4mYD0Mnsti1apB9iaGJt0DaL5Yh92rZblhk1Yfi5Y4snFsg71SxO7Hvdwd03HnpY9sCBv97IoiHm7l4Xf5398L4s4346Zp+MpOV1wlb9IZ+dFQBvawpIzkuKORO4n4HiNAF44eZ+5DWfPWpzIE9e0L6V7/Z4xukErsLfuecGr9B6shonMXpR2LzvqaQ96XQYyDC3eR8xdxd6UWVQAb6wrD9pfqQe+pdCcMTAY1EA+lY5AuwZOz90XXeAYbg81XaKM6oFAxxKON6EFnr7wpIXD4M6JGiLCQH7Br+mT1gxM/lu8whUxcwvXz1U8T96GAtqG3HNP4RQC9uP3c7nPDeCbG3sNpZiKRYbeQt1jYsXXr/QLakpr1AOc9etM6JWSNrCVgVx1WyGnXQh02gzcXOYLpcN5xFowvWvxriu++6CFffDWXboTszxIK9C/rHAlM9+67b83VYBWqdZwS/SOO+3XwTadNF6YPNUL18oCQyGq7TQZUImYmZWvhIad0jC9ez02cRPRKXFxVZNCCTNn3lEqAo3vP94DkC9XfluORWQGGV4xEwE+pFbXI6BEc5jqKi+yC5u0nrHhNLs2hfOOe2iVwsGii3tx/T4IARl8+6nfuBfVG5a1hHsELy59LuGuUe/PJHuIl93z0Y4S+RHuV3aGM7gZ/LzCHo52DL6MvgUYwDXlXB7075PXsDBeogD1ZwZCcmCPdn9QJqGwXrUToHa+fj/QZhU7OMKt2E5R4Xi9/Jjr1cEQvP8Jx8frm6nRPysLnhc295VwZQgf6Kih0YiLHeE2gsx3jYVYnhNXVLUBf+B0l94b2DEjtIdrBQy1x9MOZb7Ia+VA+Ce8FPrtA0FvHwiS8d/XB4JaAMoIVXIsRyET5x8gUn3As701HPtGgJlrZE6pKuPj791zRnbGx6u9UGdQDh8sSNiQkkN2lrAsm0M7buL3aWpfCYFiDpwdN+T7lanh9+l9utbdEiaj/8UH3C7G2x9evxb3y4ePH799bO72//XrcvZP375MV3/8Fw==);lineShape=1;sketch=1;hachureGap=4;jiggle=2;curveFitting=1;fontFamily=Architects Daughter;fontSource=https%3A%2F%2Ffonts.googleapis.com%2Fcss%3Ffamily%3DArchitects%2BDaughter;fontSize=20;" parent="1" vertex="1">
                    <mxGeometry x="124.05337642687311" y="494.8796382749772" width="145.6127796275009" height="114.94499800095241" as="geometry"/>
                </mxCell>
                <mxCell id="8" value="" style="shape=stencil(7VrLbiM3EPwaXQmySTbJ82bzHwusNxbi2AuvN4+/TzMKx8OipgQBQQ5BbrLMmiH7UV3d1Cl++Pb46evDSfy3t9eXnx9+O39+ezzFH04i5+fHh9fzm306xY+n+OHLy+vDT68v358/X/7++qmv7J9+efm1P+H3Cy4El0JHif/j729cTH998eNl/dP5eb9eXJBpfXa+0fUpTuubq5Gub37eT3SpEEAc798AxTW2o+hkPrFEFzIF5DwDqitCAMmFOgGiGalSQJuNlMR5TwDZFZ0BzUUlAHU6HzqrK8ysxaX5DBq5WauLZQIU7yoza3Myn6EUegbxw00DUOMtQJljqdomyZZ67M9bajI2eR1gbpoP3czTgQAs+Ob0aYXGkgEU8qfShLsKyCSWDBArAhoDiKtzxjVzJYklA4hHQGaAMNy0A1RmVr+cobnGgw/eELznKWehE+96RVmCyQ7B3qAuh3vMZCxQly2xcDUA2rUOXx4BgkdAugGAQ2ennCslzQCrSJyNdc4gS2oWG1ZR6rylmgfdHgH8vKUqvGYFBJTmlFhpC+ZtvY74vbreQm8+comUZXQQ78bdjdo0uzTvX62+kOcn52eLanCViAbB/eTCM8GVeT/ZnE7i2o+n7aphoushqlN2Qhy8McO23tMI8uivqONEB+cNczxEcYXVKdRUFlGePD9h4RSelDqssa3f3ngQz1AFjV6pZhOka+M+dmD7N1io8wazkLlsPkLPalbJk8sA8FSz2aFB72wF4ur6mDColeaMhViak8x8RtbnRchzvaYWYiBShwWurjfKyZAEnLNkUOD7eTPhlOYXZcQ5NLs829MqAxN3vdQBQHkd8EveW1jRPenSWpiyZ4cOrs1ONisVZlXFKHovDtcBHgtytytJhCLo5+hpbmoaebIBgsvkDDnjGYzuhKVCGWyy50dy6Ngw9qIVTHKGKKikDCAs+3Uk4w5A++aCOicKVdlGP1nQrEzcKea/ZKpadITBbr0nRi2YbxbbzER1Ce042rGjAwMh9c6ESUfBst+7K/aG5Kosb2BOU9Sa/QyMMurQZTsjsapggLqUZs9KZxuBvHczmy1Y9zfnQvc8AxQMPHN95G1ISwigXUXC4mzBEhjAaLIiQFho+BHKuy2xarg0dz3cWTVEPdKrObGR4jTFvgkkVBVJ2LzMkq3gxKnrGVJ46qIgI92/GTQkBCSenDAnlG3udjg0W/iCNrOKXUhXMHykpUtyBraliiRvANpqtmVLebzznwF0IT6XQnMlk/JWNGCeagDWe8Vljicbg1yvznmxEk9Oa+YCMFKhjKQelZvlB5NVutKwDsq5nj4VB7C9xyWCoaax412LxDSMCTeYQpjv2aHr0pRb/LIzmOCOALDwJvlQjBKhbQujxh9JQ6jQbcwar7tBsafiw6Nc8flWFsjzs0flWal4tpYKJI/RWiJx1JMHpoRctPVqP7OesZSwaa1HLWykQ8dfZZhw15OwPtKCALTw+8D3iLnT0pNQDeMH7e5aDBZHDUtDV+eEMOow4W6cUul6kEjmeCaRluenNPTG0f7nsEvbiY4MBGNXo0BGFpaHcL2TC3dBxImNBjqS71IYrncyFSR9OD07TXmyWRzD0Mnog0kY40OQwmW75Tq6JRAAtKEhjoon+KFzJr9LgYsLY2Umq/rMZbZS5ZTXCQMm8oGSdtd1AMi0jvxXLpDuuhn5dy6QsJb8f4F0DXDnBVJCvWoASq7JFQimzK/zE44NmvD+NqHA7UnNrLRMxGqktGH0Db1PKdxKgtOk4mnJsooCwkRv9D6mjGYrZaWebtiY9DsYWnSBx5JQP1uLMK+PmQ57FENb+DXheucReRczhqI74cYuGPLCFxYTdL2g1m70igdiNFNGXW5dAw1Qq1LwoxxapNI42VjOJWrGbs1T+ZhxKOfH7g4cG3EzPM6gOfU3tCloTV4EKrKbp0GzzLE9H3B67N09H9L4dTvsfiMsiivwknfvj8turrcP779k+3J+err8EG7/f/zlm311+dVc/Pgn);lineShape=1;sketch=1;hachureGap=4;jiggle=2;curveFitting=1;fontFamily=Architects Daughter;fontSource=https%3A%2F%2Ffonts.googleapis.com%2Fcss%3Ffamily%3DArchitects%2BDaughter;fontSize=20;" parent="1" vertex="1">
                    <mxGeometry x="397.7571232265566" y="493.51615929786635" width="41.43392503176483" height="104.10079123259356" as="geometry"/>
                </mxCell>
                <mxCell id="9" value="" style="shape=stencil(lVjZbhsxDPwavxISqYN6TtP/CBCnMZrGgZP0+PtSNeSsuN4p8uaDsytyhpd2cvP6ePey33F4fTsdv+9/He7fHnfyZcd8eH7cnw5v9mkntzu5eTie9t9Ox/fn+/P3l7tu2T/9OP7sT/h9xnElyR3F4c/5l0Ip/fvh69n+6fC8sJdEUif7RNq27VOiGCZ7Jo3b9jlRmM8TKQD7IuNxwz5QCNv2lcfjPuwF+FuVmkz2QqFu26v4+FRq4PyaSebnR8EA+7vMAWUSBIikc0SNYi3QZZkpE3sEipFQmt8gBfpQVqJLPGi/DgjEaQZUioCGzJR4AtgvLFCnjrdcKYAomYsyv6FEqsAH1pEoF0ChCFLHeM1OSqZVcKRYKc1aqokYJINJLc9aqpUKALShtGGvdkZgbw665+vw6fqBMsVZGKatCpTUs3dmoUbo8vpIRakq4HmVPkZbQUpi74PVKBSkLMTVAyKuedW9IVMB0rMgRp0BjSrIaKM1zABTEqoZ2ig76TVIXEtUZx7UMhDw0NooKQNgj8joDc1X7lYoAOIM4IpMs4QCCWp/+zcodtrE5wAWN+S0dUP2gIaOdKnUSwBD4jR4ACoyqisfFBKnZZx4EdaAAdkxnWGUDFDdkRKs3WpVzkWJqaCu3lZOx1E6t3gIs7xbIEXisyIQPQCVSouJa1j9DUh81Rfv7gOQhvGqvIoSAjRflzoP4EgxXIa1JdU4R/MqRwN2Iq3lCkqf5Wh1cW1jRNusZOuUQ0Sw77qLOFxHBD9g2StQn7Yk9QJXOJxYRriZz+KaUYewJHVZbdUVVKbPA2xgcx3C6i0a7a1azz5owlNl81Rb00LaKOyzumZi4EPOvm7Y/lGANlLxSWrzDEoIqSOHF50aacn2kTDzYDMZKsfx0gQXQx/UkpeSUY+CtKoBtuIgl20XUO9AAbW4+I2yj0NoCA2DosW0hPpPLH5w6PMY0FHfgd0AF2GNkeCn1lxG396ShZN2jmNvvC687Pf0hPef/rxZFimOceg6oHpA3xJRerKf+IThbP8xmF823UoKmLZ9yjUsExeqenXltG0saK3sb3CAAAeHkjxxCmdQ00F2rQHeT3RWZXUgrCQX1MijqG1ptcxKsjUT5WffKtkD0KxkIXF3OAZAOxyvenrffNFaedmnFoCAMtpoYx8lQcv9+p4rws7AsjpSgDucAdz1QcNRFb8JKMxn80CSs4+o8ViFme0r3Bv6pu7WYjjffvYm8//29uHj2vTh8PR0vnVd/u+vWe2n8xWt3P4F);lineShape=1;sketch=1;hachureGap=4;jiggle=2;curveFitting=1;fontFamily=Architects Daughter;fontSource=https%3A%2F%2Ffonts.googleapis.com%2Fcss%3Ffamily%3DArchitects%2BDaughter;fontSize=20;" parent="1" vertex="1">
                    <mxGeometry x="409.13763314355515" y="367.1179873034059" width="40.9364348930701" height="58.527798633186194" as="geometry"/>
                </mxCell>
                <mxCell id="10" value="" style="shape=stencil(7ZzHjh7HFYWfZraNymEty+8hQJRJmCYFik5v71sed8/f505/La4MCrObUKcr3ByqnvIPv73/6dd3Tyn89vXL57++++eHn7++f8p/ekrpw6f37758+Go/PeUfn/IPv3z+8u4vXz7//dPPz7//+tMauX762+d/rC/86xmXt9kXKIV/P/+htC3l//7lz8/jP3749DC+bLGdx4+tRxrf5ml8Tdts1+PrVs7frw2/37ZwHt/CFhON7+f1tLoF+H7fcjyPH9uA788tnM+zx63W6/ExbKGeAW0rsCADxHICjLA1WNECjDOg3AFCOgOMxgVpcD7TmXCCot+fYSswPm/5TOPRkIfyFmTDGdeTttH0RAOOFx7qFc/Hvn/mIeOJwuPP59OMC3n9+Tw+b3V8y/fDlmA97jxNJifqiHzm0GoUhPW0rZ7Pp0aUyakSUCbuN8atVQUQgWNRjjZAnAA4GPJhC5MAY0sCqFsDGkTb4pnIdW4JFItROYrmClsnLqpbdWzRgAxpKJ0NEGDT2dheGGns5ud1QHGAvvPi64Cuuq6WrQcAGF3lWNOWAFCCKiNjjQTKyAA16AwkPXlsRUxm2z9xtWm1mXNrBGg7IzwqDKD0Agil+5ZIY/etngE97Er2atNTAKZFSMcEXZLZzUoAr4XHFoH5St2N0gGYuGnzhFLQGUiPGecMcRYqCtDSi7JpVjMGUFVv7guwhvGmEK5lFFFT7ek8gzFfphnyNhx746bLVoW9067PrwBNAAElzgDjTDijDDqpdYsOEBggx7qYhTbtfKrSUZFVJ9OFnQbTpNnNQPJgulpcWwMkBvglkV5aFm3qKUUwigboVQEDlrQM1Nk+lOMTVwC104HjEQOIBYoMSPuZPCyJvNVWdmftkXDAS62qqiwZ5aE19TWWEaM9VNVLpaBzYpuuQri2W70rSouqXMoTlmTsLereFE8lbrUFiCdg3EoA7y8llrjq/CUTWp6hn3nJ1H0mzdc02jYrSvLgZbrbpslVD7un/RArFaJ0ViVgVpQskJ1JO9PBDDvRwSxaEaOY0SiaKyIxfecIuidVxktCYEm2ADW7ESltdj8L8xk7wiktZ0dirID2wegqbqiJKAWtyzs6Uzpz5sMAsqSc0HUwQDuf0ku25XKG8x5SQtfBAOlM6diRW+2UxnkPMe9SfgUQ5ntJt1wSTsKB3b254gzxTYy5aUFVVUBGTbzGn8mcMF+1Uh3n75uLyfsNQgIMl2x8PjNFYDY90oMv4zONN1tZZTyyUFcmtfEkZ0N1RcCIdfF01vWzlE13PiQzU72FiPldGy/BZNxF4mq8JGOMIPR9UyLn84+JGWioEYyHhbgEnClwx0LuSBMnDdaez2eUBkbo3SVvssVtQLURlKtXCA6nNJLGnnminlg5YHGoElrN0XfX4wBUdBVmcCHMwHhhpldSK5Q0mFkpXRonDvNO1wcjSNp6Ou/FXOfEM0h0a8dK+m4WNVElYv5/uujWnPMGhJvVzRB2HXgFECNovIQ1D2fTDECpxtlVgNYMtKS+u08Pe0g0w1AfbyWM6JSGCyUj5pPmdDFPQpdtHinkB14ib96WpLzUUWsYoEnMU5jS45WELLK3T/kmND8GSGcBWrUMkrixl+8O5zxhDsAAvoBGFmgBJISJaNLXkqQ+VO7oIDmAMXbVdsl8Z/tgeqQw8+WzPJjQ3nCrJJVNaMnXXoDzHpbQksRNZQ0DDJK4qXRY/Mt0EGU8uSozXZHFAFRkWWqmKgAp3V2AEdg/tGNvbk14TE25b3J23zhBfId5FDmuAGLZ52Bmqlpamh2TMQaQ3MpMd3uowt832rhq/cDcj8rHKjZrTEyVTFdaMgDFkgYQt3IcUnupvrMCkF2PCuDDpsm5N4CyRsToZE6taxrhIhu5KUKdWUZtSTJDuduDBIiz8pK82qi3BkJOqe22/lILdAcgeWiOvStmoNb3gp7SpCVVdQVmwZL3qyJKNZAlorIkzgRMl8kwbkVA03LA5FjaAKIETIAomTG7BkFLRG8cJqc1KDM+p/YnzRv7MDXBagBKHb5YqAc6UEnjwUI9kHqAQHw74s0/+Z79k65T/OH9k+KsVueYumhvwCzYQmX/liWNgVms6ZrkRmX+zs7diBw4uSLFXeCUlftWaMYA6bu6C/6y6z5ITIesdKhHsHYF0EJLYXnIezfDAeBmubcc0w54yzF9BzkmVx4ojdWMS1WUyRmgvsdhhwBxN+hyXc90qA1b8pYvIjN0dvt8j8ZNdn1ooFUrVtVMV0t/w2qsgj2MrBGBqRkSUVPuUrcrR9bpqgahhKtop33lq0Tsu+p1LyAcEtdQkXUXc2R2K1d7nBReJlfXiqsFVQyDDCAxeApc9S5KuNh2z/R3zhDTHUA6WQbqsbeK8fdXMR46/g9cMR6+Loj7tfGaN2BVGrUgEDNmYwwg6ZvIoaQBynkG2zJ1uhhAWsXS0X35O2fIGYm8fH0BTGyos1MVvVUqtlkt++FucqEqdd7OKi4RI/Xd4h3ef8EmWa/p2kQ7/tIYdkQwhTedNPGx+hdAGTWXjRkJ+9ib61M034HUxermdLehSJ+2qC1KY6ATuVonu86APeBVNfDgaHjdgDizxgjovNSomRKjPbFGDSpAjb3/FdUJ82VszFo95dIZ3DF5Y5vWBtOI8fa6uiIOWMOKw1qAiy/In2pR2TtzTswEUqOwimm65qqzuXDrZNTMYe4YSZqIagSTsNi6Zsh6rJSKWZzjei1JtzbXA2YhD+Vwm3NhLCChTRsdJCX2IrSvA5Lahzr3jNTrvORqS5Xb0lfvsSRKBt+JcEm3da2CBOjtXsf/AP//ex1RAW/3Ojwg+rwHb1qv8R0X+67oIBLXDtf3ijWmACre8Fy8JLfrJ/NSU0e3Z7zavSROPLKbWxfZVeAitiGuO3PnGUbBCwjGamKnR8NMoznOIqKjo24tWXucBt/wLEFZY/BFwXUlVDad8Ir0sspCh7Fr29cB7tqSURoBUQm3XF/g1uz81hYxFWNLkvihNr7W6mosS6bplJreFi43e3AtHYW9+5VicwlcSrqVos6JzUAu3EvW70HzkaNrMzRxfwrfeE7asb2cExKg4K6qRyyZGB2kidwcIjIoFj2LYV/XjOj2/FT70Dh4TVWDJgNMeoTBxUCNrxeno7fncQagQ+wa4jfWrdHlY80+UDUtunja/EzqlIlJc1GVr/y4dqLKAjf20sKxoMCJeo02bp7O8N/n9bt+kc6VN3+XjS300KczXrJ3F+PFsTK7QLatv5JsQNPmrPPNFXjVLaNgLOZCgPX4DV3i1/GdTXN2ZrDg+pPGkp0TGVHTQ61hCd0bzYhtje5VhPVgBtA3uNv7CU1mcLECO4SucWjF2nA+7ukhM1ekRYN7jqri6wNBz7MULGwHVzTjYn50T9Nk7DyJ7vJ3Rvomd/4ZK8j+njW7E0kV+s1V8az6sxSsN2dXtSx7THIxfsj4I+K+GP9tz5ndj7cfXt5O++XDx4/PT689/l/fWrM/Pb/Tln/8Dw==);lineShape=1;sketch=1;hachureGap=4;jiggle=2;curveFitting=1;fontFamily=Architects Daughter;fontSource=https%3A%2F%2Ffonts.googleapis.com%2Fcss%3Ffamily%3DArchitects%2BDaughter;fontSize=20;" parent="1" vertex="1">
                    <mxGeometry x="444.80060330583615" y="468.98923695785606" width="110.70041389737685" height="75.35987918307183" as="geometry"/>
                </mxCell>
                <mxCell id="11" value="" style="shape=stencil(fZbdcgIhDIWfZm8zQAg/17Z9j85U606tdqz9e/tmZ0c0uJ47xP0I5JwEBl59bp8/1kNwn6fj4W39M76ctgM/DCGM++36OJ50NPDjwKvN4bh+PR6+9i/z74/n6ctp9H74nlb4nbmSKZeJCu5vngmZ6jzzNAO7cX8FVKEsBuBKrgKg9oAE8gkCbLeUhEoEQKSUDZDLeWYRKIl8MEDRmHwfyBrBG6Amyu4+kDxxMoB3jhwgYu7TVAsVkFcWCs4CTBEoF4RctKeOxHIf8IXYpikHikAIf+MNUW94AGSSaoAoFIE3AlOyeWU+p2E5S9yfQZcQILVuQOwZdJNoS9Ls3wA5u2XZTIHECqeJ9kDpSaauRiNVcAY1QhdBzeLBli5WazpkSsBLV25uRaqWRyFawTQzRRIQYirJzq5atkBqLfouwqUxLBepthWb10vrWZY6UOAeyKCCtDV625mm9gmUC4Wc3VLJMMIE1BsA2FW9JraVlQB7n3c9oMKhCLEvIM1zBPZ25/umNQ1tVEC2G+fFCC8g398O2hNQuQlVu752DBfA+q0ptnqO5JFmeuIuo9DY7KjY71UxdJV4EntifPWorW++R/dC4t7V3DlIB5cHx2bc7eb3yvX//QNFp+bHDT/+Aw==);lineShape=1;sketch=1;hachureGap=4;jiggle=2;curveFitting=1;fontFamily=Architects Daughter;fontSource=https%3A%2F%2Ffonts.googleapis.com%2Fcss%3Ffamily%3DArchitects%2BDaughter;fontSize=20;" parent="1" vertex="1">
                    <mxGeometry x="551.8679608424759" y="482.8753124585194" width="4.672539772115215" height="4.665236216357243" as="geometry"/>
                </mxCell>
                <mxCell id="12" value="" style="shape=stencil(7VvLbhw3EPwaXQk+m+TZcf7DgOVYiGMZsvL6+xSx5mpYnC0hNx90k9dTO2Q/qqub3Lv07vvnD9/u76L//vz0+Pv93w8fnz/fpV/uYnz4+vn+6eEZf92l93fp3afHp/vfnh7//Prx8u9vH8aT468/Hv8a3/DPBRe7C22gov/38kn2zi6f/HoBfHn4egRUl/0KSM4rQHEtrQBzMQtAdr2ugO5il4Af/z0BJbloElDiCsguRwnIq5VKcUG/IUYGNAVIrtoKMJfVppMLq1lLdV7tIbpkDMhBAMJcwAFgynHelbYBxB5Cn6F2AJQqAM21zAAVGgCEyGZtYg8BC8gMiGpJ1YXCnjZh1mAc3gi+pvZQXQ8rILgqPI1NxxWQm6tFW2kNjVxcUnuoLq2hka/RdQ7IzlYrZaSUWlJ0kXgJnkkC4BkAKyVh1jbz8eg3sYU2WW4+b9558f3w2vr9BhuIDTRXVl61PiPr9Pnu6rqeml6zqF9ToSIVvAAgBgjQpUWRzm1dUgvTKbdKg61h1OLM11NAipwKeEMWTks2c/EK8JJWUf2IJbFpL/If1Y/8XMEIwqx5K6A1T948BZR9SWGS1DkABXlNNkPwiiWVa7YfYjWI/AfrJmLJPqv8OQCxTKRXJHEjuSg0YAZVfCy4ToRRJNNbmrx+UD5dLQluWs2K6FIZasXV9Q0pOBOxZKjgqx+ijiXbyhuqvLTS5gdwv1I+1buw+iFctdA5IDi/Rmu4fnILYGsstalszp+PLpNVnakdRKaAKKUbnm9rfgapSUC7VDyxX+ECPG/r+hHYwsd1U7deCpJaZq6/PC/tX6Y2ODyv1mMsC73U/4MO+XmlLfB84/Wrulwb2yfIGoLnLdLzr3x/Xb8/yvZlPN/o+SZYAs9T0sMhKv6hHyk+/ezhbgGIJELSGYZyQCRhLikAmJFc0GdVvJUDVMeRxEqLABBXknjRVzezfvUCtENSb4jcCCfdKQzeIg2syzIAcWuEk+ZeroFh0vdNsqayXFwXjkM5KKunUXdV8AFAwYoip8oBKlQm8aLpa0iV1UqIrq5qYGU+HTJV7aFyAWlJ6toBWBmyVUnxY0lrxnUvHTestL6hI6UUSQbup3qUSgE5TVUWS8oqlvpkxeummxTzkO62Oq6Z3HQrU3kc/NDUGyp3/1D/VZAAjOgpNKqrwkq9sK4FIIk9dGMr1au8PwdszfxYkmrzmuurp1Ew1Nim97N8UM2896wY0CQlEd94BZWg0YapXXeeFyBaknA1dl2ob0uyyMGu1CQBUJWZjHUqAF2wMYKJdNJ4g1pScmV7g+J7pDDRBqykpGffWnr4QWnhHngWC0+/9oYtmIreQ6X4blMc3LISFbkhANWSMgffSDkVrcaz2JHUKuUqBx8ASqIjWon6sGlFfcgHKkEAqN5zZFxmP7wG2GYxXm26zy0egk8NPvo2iwWgKz9UboeRDzL4TgGK7xO3DqMECSmAfAhbkVNciRJE4h5lVG265clzV0Ca/dA5wG+VvWjRtxEZAr4pWRm5yMGVWQsmmlgfSsat2UrbXqHUt23Uh12rLguA6NkRUW0iziOhQ2xIbbzNGV4pQbYNDsboUM2HEs/pIXXV0QEAJOKgx+UeMjcEkOsqIcaMmgBea+MyB4WHlkPxPQA0RStenozZtYU5tE2KmMx44IDGTLYcxuobrZ8qcgDUdUkpTFl3c7C3Bt84RtUpV9Y3xCSnVqNtohzt2tON9xCKlLq21axwHbne6kapBJnuad4GdW+Dup97UJfoDFOePdXrkOBlsC1HVhtvjSM75YCyDfaKFLZj7LbN6VTRrFeLHGhINZ/7UGzM6ZST/dTuhzmd5N7OVgJZv8K9fSsHamoAdm90fG7y5BYViuR/0W2Y7bdDNDVa5AsrFvSMy3OVHWVUlOXS2KzDM2IP48xwP8ZUR4BhqtJDz6Pa4Vw5n8eUQRBYTnyyCvWtEii1efHiCiiSAlLm4zM0BEoTxs5qvunuNha+ZoCOJOhLNzTofhmTnY97bOuqbI6YzgGJeQ9WkvdPPF8caFm2MGWbr3p9u4oLCZgwigX5OfQ7ymbhtW0ehoRVU3HP5+2lS3XnmVVLljQceVCau6zkmT2cs66E3K1lLytz2KbPyeSMHjEXCVD03bOtC8YblNgZ50erjZI+IBpBZ7xpeeHOuIHMml1OAGA0lcqFC8+46KXe8HaP8Qfg7R4jA37Ce4w2K98BoAR9qNu93iCr7cnFxypHYXActdnIadUEI5b6xhoSsE3CIDpkeGe+i5WqPFYe16U35lPVNhbus5OehIHIKOPG0bgCVB4KJdOqp/K5RKqyF0YrRUQGgDpQitvBNQBNscZ2ZAXHqUOxIfUCA1TrMwAUGl0qaADoiuio0xrwPy/3vw7AHy+/Jfj08OXL5acIx//n3x7go8vvFtL7/wA=);lineShape=1;sketch=1;hachureGap=4;jiggle=2;curveFitting=1;fontFamily=Architects Daughter;fontSource=https%3A%2F%2Ffonts.googleapis.com%2Fcss%3Ffamily%3DArchitects%2BDaughter;fontSize=20;" parent="1" vertex="1">
                    <mxGeometry x="558.2940341231902" y="471.4371543503844" width="70.564835614284" height="87.83970826100494" as="geometry"/>
                </mxCell>
                <mxCell id="13" value="" style="shape=stencil(lVfRchshDPyae9UIBAI9p+l/ZCZO7alrZxy3Tf6+ut5wtfChTN8uRAss2pXkiR7e9k+vuyni2/Vy/r77fXi+7if6MsV4OO13l8NVvyZ6nOjh5XzZfbucf56el79fn+bI+evH+de8w/uCK4BpBkX8WBYiQgx/V74u8cfD6SY+BkjBAhhKGQMoQKwWUCHlMSAFoDuA0BiQA5R0B6hjAAeo0QIK5DgGFOUgFpAAeQyoysFeKQiw80pVoFjS5FKQAMImHtszb8cniLmL9xgLQ0ITn4C9/SsE+0IhAjk6EoFE9kkjsHOjgAhor0TJ5yBQ7RGJ2yuPSIjNWlZaHonSk+AC5F0pN+k3QCFIyQFQc+MKyFAd9wj2HEpylVErVJs5Xle2AQWilR6r9jxtM8QuD9L8tA3IIJY0FQhOBdATqDN0bnVtxKFLXEhA6Poz2BMY0Et06PMWAD3pqQxsFla1j4RUujIM1du/AFtZrP4beQc7P6s5PN1JLyNCSE6JVIAUq4oIxT+BLOX8if8LSKdsBXgnMITOndopvCxsAYqnbC2K9koSQZwTSmx9ZgWwm2iOTWcrQFovGnVP7qyAvva0QXde0CM8e6oS2KZ6LpxOIlT8nbq1f3l+5mbeNT603G9TuNtfxeoNMRCte7TiiCPu0GtbBwJ27o99vBZtr8pjz5f9+9y1zuzPYNi7Xyu2ZwQdJqxKVSPZaZyht4G2cnTePzaj3wxs4uxPzVRrPLV5ZtsEd8MIupPC/07Nn8frx78R/eVwPC4T/u3/+5Fel5afA/T4Bw==);lineShape=1;sketch=1;hachureGap=4;jiggle=2;curveFitting=1;fontFamily=Architects Daughter;fontSource=https%3A%2F%2Ffonts.googleapis.com%2Fcss%3Ffamily%3DArchitects%2BDaughter;fontSize=20;" parent="1" vertex="1">
                    <mxGeometry x="591.9449274679414" y="517.785701975268" width="30.819949880758713" height="5.729274547476052" as="geometry"/>
                </mxCell>
                <mxCell id="14" value="" style="shape=stencil(7VrLbtxGEPyavTZmuud5duz/MGA5WliWDFl2kr9PM4vhcorcWvgWILlJ3Clyph/V1U2e7N33x4/fHk4avr+9vnx5+OP86e3xZL+dVM/Pjw+v5zf/62TvT/bu88vrw++vLz+eP13+//ZxWbn89fXl53KHPy+4aBL7gtLw13ol1X+ufLgAns7PW0CWmGZAEw0EUEVngBZJRgG1TABLop0Csk2ApFIKARQpeQLkKIEfutYZ0CWwQ+dhkwEoRWoigDR2PAA1SVYKyPOWWhxXbgFUZ0CVzgCGfugqnW3J8Ak9S2IARbN29wzzdJQOW6rSWCwFaXPw9Sa13QZ0SW1ev145XF93G+rSSWAUsXl9DIFGUtqZqNMD2EiVzXoluaASIhoosdwZu914IJHADmIQE2XwwY31eP8kna8H+5gUFnOSZwc3dwkJOWfD2Z61U/tkaZDHUZREaJMy27+4R8j+3fuzPXMdhHwrA/qO6zpzsCJ1pTKeeTPtZxckN3LmTAQE7xWBs2maz+B5p+wJBdM4dhpFHkZtVwYr2ZKFccQVkIYnjwFZbLbS8kziB+tSZj+47yOJVLd6mbnOjPJ1MskA8KpGzJryKNyrpxMHVPR06jT7/ecA4Z1oaOSAh/bKbAygEmc/FD8D2VLO4+c1o71skUN7QmIp79KIH3zHAGhrsNw8gyKAkXDeibZaKAnkgqzhNMb0i59B54wrrplIPpSI6sJvwc7gboKczkaDr9RB1FsiI0+oAZ+QApUj1RNoTlFXqo04zq0O1Vl5NfHI0TnjXBDQcrK6acN8TBZ65ADNuMhqJIFawwqaJBJB0jyl4cw0MHrYNRiD/Y/XO+3NJgqjHTheb6PeX9ezMHINqxnXE5e5HgJFFWg1XPRWw/OSoHM9lyPak9XzsJNUPIT8AVALM31A79hCVhoQbqAOEkyMpKULRgNNPujveP2uM+LE4l0NSCqumD3goCA0Wvk9AWoA+2Ryf08w6FkKbbCXhJwDNFHWWu4P8uteAiOljA3etA8mWGUBraOhua6PzP5pn/Csg/L4SZjANN6aBIPzRp4vyNFijODWDvFq/8rv3zEfaXz+6vqM611v2x3GhYnO2gLcijh4gvLRg/dkINJMpbMcszFoWAFtCJJjQMCy52q4s0a/SoOyt/LkMWA14uqGTHsQVxMRZkZKE7PuEq20URuOFVHHTq0m6mmXUGXX/XYGcMfNxamlMWs7Bigms0cXm+i46ANV53wQ2QCloaddYRRiVleJBepTHo3SMSANwbSxkpIKlRQd566MxEpLXwYlIdJYsor54F0JKyLenkIRuTZKxwDDGerS7JFDW9yVKaVb0l1bZLxwOs9BLC1KgQEiOu4OdXulh/bUay2rJV66O/CS0g7BASCm/NCNhIYf2nZEFggvLTuGtqjR8HZyhyd4DrIOwY0IXU5u/NBxWH3Tk7MxQWxIxk6ehc2BC2qwtg4+b82oQIQtRYwB/p3D7znj/h9+/7eH30ESnFfpDDLizLI5x7MkGCmyro/UPqu+2aQxJQoMaNcb7L2dYel3ImJ11rUKvObj8bmOuLYljdi/4GjdEn3ZWnAUopVySsb4cY+zhLThzTUhC211dKj2TafAtJftOql0x18JZlFG1yeURZGLloTV2DmVvYouaM+FUikh6m49bfVRy/p6OvvBePP19EV3GOm0OXAgB1hmfzsAm9ZFRZHmV9j47dc/OLgP8D+u3zd8Pj89XT6P2P6O30P4pcu3FPb+bw==);lineShape=1;sketch=1;hachureGap=4;jiggle=2;curveFitting=1;fontFamily=Architects Daughter;fontSource=https%3A%2F%2Ffonts.googleapis.com%2Fcss%3Ffamily%3DArchitects%2BDaughter;fontSize=20;" parent="1" vertex="1">
                    <mxGeometry x="152.53143330225544" y="254.39669540160799" width="42.29026202813111" height="51.3823177111567" as="geometry"/>
                </mxCell>
                <mxCell id="15" value="" style="shape=stencil(7VxJjhw3EHzNXAnuy1m2/yFAI2tgWSNI8vZ7Bz1gqRjZFQ1dDAPWbRZmk8w1cmE/pFef373++PgQ/ecvn55/efzj6c2Xdw/ph4cYnz68e/z09AU/PaQfH9Krt8+fHn/+9Pzbhzcvv398PVfOn359/n1+wp8vdMG7WCZV9H+9/CUV1/w/f/npheD904czQXA57wTZ+SYIovN9J/CuBblD248Um6vlmmC44XmD3K/Xd5fTvj66Lg5U3RjMopKv14OBbV/f3UhqfY7b+hzk+u7iLoEcXaqCod4F2sC7JBgEkRFBamvP2wTZhWpYGgVBccHITO5QXN+1aCqF2qG6uks5ZjeU2uGKu9hiXLZxm6Avri8CfIRXRxou7EcCo9OQBH3nErYUthk9X6E4r9dnsrRlelfrCwnBeaGoWN/3zw8uCVeBf5Nme2mYWN8SrVd6PQU6aH1Q/IES83rJz+SyWa/uC89Z+fxCgbC+8Pqm+A+Nb8T/qM5TWH+CNBnruaK0ybmeYod0XDh/39dXV9R5wJ/9PMNVzX/yQuGQ4JWAO1lw0xxNxmIQP9UVwBEyySKDHwgi7TBk9JsEFM6S83qHRPEMzlhfelDE765ovQsEQqo2zMPRnkBIVjsM5hIClIrhKbhAqupdFWydTKTw0Ze7v01glHXuIOQwr1jMpYW24kiFgE5zRbAVBIxEvBvqSBAT6dJwTXEJ2IWAAj5CCA6fZ7VVsnUsl3Viq9KlSUAWNyR2AU9INUCgDCgfcPSkGkkT8JHawpS3CQLrEgjkDpEBGwgUl/KB504EXhhQTubSbSnLbQIEw8EEytuDoAZmq1cEZaGVE4GyOBCkPT5A0gqwgYBTCyiLsIe5w2CCoXdgiwMbRAwFAWEGOAGVXWSTXsBEi+ISTN6YqIIxxTM0TxrHlGqgeVvI8jbBoTnHDkEaEAj4DsBCwh4KuEQ76BhXBscHGG0Sl65hKfPJt8o01aDJrD1fLQzPYbRJ7VDNDnX5kSsCcvdQliBUAwRll0MBZldcglPZuVSKxHwgaLt6QzJRXbpzUKxRQrg6OD6A0UNxaayKy0EwJKpspmjT4kJQVwR1Z2srMpNsgVPV1mUqAIK6S7ofydZtgrjCx0FQZLoNAnICvctstUV29yNIE52X3rk0ssxPICaKQKNKvFSNXxp91TWubJpqW8HrHBRug7DDOKoIV46pFD6Tiuxwfb4wm5RuwLn2wIJQuoEjUT7Q2zLCq0u3fYeetK80mW4bK7W7klzad2jNVSWHwbkuTE75SmgfoXUocFUml9YBTm5DRXYcgMoTuFUUbMUVKWuCPipINp0Eub7gurh094ywIHvlXHtYGcxBoHEoFKFSTeyo6twmKKuGdIpZSg7dxKysiwLwW3GXdD5Su9sEgyviwA5V3cH4GUCBpuQwFhY5HUnF3RG5dAIooODMKAb/dGnTAya/RxTgRpXujmGqn0kXcL+60oOiysrG3GIXRNVVAcQDqiDCglSde6Qlp4MAIUWwCZKjYsvEH0r7Kvt7oIOmLChylINjkgSBc0W4KoX64AWoTjkJVAfHpOA40lB4xnrjKHOU6cnoDkFqXztSyRNb7/hKIpghQ8ETc6QJTQWX7KWrbqRZtoJAFbCt4KCtTTkmoxogUJmcVb4Zs1RzLHHKAQKlGiBg9N31HRK3oqpOzOYOhL79KmxfEVAZAconjxQ5k2u6vAkCKrbA4lQrB4LjlCPJBBmqkcO37ABtpQzizh2ayajvcAkGRCixeal800RJW7WkQdCNLinwjTtEY3F3HBkHFG0P30zQ84pop5ClaroAG2zTR0/idozz3EUBSlRlNRsUkYMoOIOEhDK5WRVQYTdyL7dkmWYh7FLFtRwmdQUryVUCVkoTTQxOgLDkWIPJ2fMdm/amVK4DCo5ExZZUpOC6LT5mWZfutj+QZXUGukTxAQSqKgBJD1PeVDEOukQZx+SSJiD1znGldpfqvetSLjLjGGY+AxmHqhqDS4QEgKVVJ6gb3zqzJkWA/Jh2KLLi2s0ESBl3wy75Vl1hQoyjlL0e/fAre2BE1uQs1HT3FIG8rjBVLs4gKEqCzNqKj5AwNBrcOmRNd4bA3VVObKCKXscw00GQV5P7qnRCVQSkIGpMoJq2/0xyhKuspssOk5J16cIWN4JEZLYu3XU9FATUx+9FFgVmbT2yHJI6kqnmNB0UQUDee2qXLj5yShNlWjY7EAYZK98KwWXKH4rMdmHyVM2ZxXh16cBht9wRXDBVBN0Jqp51qehMEQSZAnuXndHqTUWqyHI/2Gr7NLLX5DlOI6DIjlzn2joIlAFNJg4+UhSSLsamgWZU5aREbuykIQt9IOBWatWF77gU4SDQrrLYeacswy5AJ0/jNl1ajzwTkoOs/iDuU+M/J1n4hlwZVWrMh88bppQoW9qBXSXwUlVH8mZcaMgIlExqOadO9BAJuRlIWoGT/+0Qidnh+xCJJbgxRKJnQv6FIRLyS3HtecUl6oGnw7VdCY4H9Ia26cCCy3qIJJnazAwoykQLt8tylxY3JwSrIVCzm2O1+c8Zu+BStI2gpAe87ZjKkDY9d6CQVeQwTxyMyFKQcToFDuzT4tRkpYkPc8xXsBUhkE20SDmAJ8m4GTnG2E2ZQg+qz4ko4lKSBoS4340cVAdvKh8NrDaJjGHylO2mISuJM3yQ8oW709vUVEx6/DxyBIIfUSnNfL9gwIlXD1VMvXWGSfUYydaXmvRLIOCnMFm6+0lA4EQPO4TOMHSGXX1pHhFPsvQYOmvr5Jt6bNN5YCNk/ShssJsJXr//GXykdu8lyfeXKt9fqpx90X/rpUrhGleW7j2aeNBWFeFqPT8dCzLg2Ecb8wWdukFkEAmRqWmieEz2nNyQsvkpUgr8VTPJ80RUHBK8wKuQlc0wqj2jHftVCXow06NJZ2HzGaKJUMpTBFso0d20EHlOBqhTVUuHCeO6QlzNxJWX6xN3AvD5aqgmmKDfZN3G8+T1TGcEg8yQT9avLk2vZMJDJbGFj086pMaOosGOURYjMt8XEpRj3QZPVN2Z5JoTJKhiazDFwqinj4N5VhSjnAcKJqGNSY7JwsrI2+HO8mWtMcvkZccgFO6rzMakOlI2SXmTzdWQDNIc+jlx5KnApF+nhMh50UzKFQ4MjIpmuqm4FLhSPQnUDt6wVZfygjfd2KHhtSl4wpyVe7HfJtBXvf5iPUtBv00xw/5JT4seD+pOtUuFxU0RIuk3Gt/+DRD3CfDD1y+cePv0/v3L91Wc/89fUIE/vXy5Rfrxbw==);lineShape=1;sketch=1;hachureGap=4;jiggle=2;curveFitting=1;fontFamily=Architects Daughter;fontSource=https%3A%2F%2Ffonts.googleapis.com%2Fcss%3Ffamily%3DArchitects%2BDaughter;fontSize=20;" parent="1" vertex="1">
                    <mxGeometry x="199.0566683638151" y="257.0473875367809" width="110.79155354951104" height="90.88494701472132" as="geometry"/>
                </mxCell>
                <mxCell id="16" value="" style="shape=stencil(7VrZklM7DPyavKq8L88s/0EVA5Ni7gw1DNvfIxN8iNtJO+HlAsXbENzHlix1S7Z3/tmH21fvb3bOfHh6fHh383n/+ul255/vnNvf39487p/0r51/sfPP3jw83rx9fPh4//rw7/ev2sj2138Pn9oXvhxw1ks1DeXM18Mvzkj03395eQDc7e9HQMkjIIs1BBDE1gHgg5REASEOgOAkZgpIaQBEI8FSQHEjoIjjNtQyAFKUGAkgih1nyI4vKYob3ZqLJA748b0OKIHbECWNO12t+EAB2Y+A0K06B4gwg/7CZtB9gBlSj65zwZfH0KhFDNsHJx5mqGKYl4ykiIBEorVIGbfBGkNnSFLdVYAoJl+zIi/BoI9qJSZjbC98apAxFptmxMEW8KjYvHFh2On4cf2lSC5sfBo3oPgeJGf840Z2ybl7+Jw/x4jIlmay61m4cYsSINkvJUMgL/U/sdeLHdcTrUTy/SnHQpJA/KPRNY73WSrL+iyuIoA5VFfkRouDFUtWpDkWCppgyJK8xmhEHzGbVcKAfXUTDEmCYMSDgmhckagIWSIAVEFIGkTfVfVI1Ng+pIkbo+upehqQOy9sbs1SyMZp4IOoBS+GzJAj5n6LJRLbKpIGYslJJl4qWt2MXtLyJRAvlSk9W8KSjVMZjqNbVbUssaHEHswbYdBSoY0fV7T9cG58GL+vkUL4vSSsXVzXxNPjczdvM7gz7OnxBR1kaBRVgwS2Zevp8RYlmetr9b2UOxpP9FXly+H3WQSpPGYoEWjBXDMSqhND/KlyDYnvKTtq+QAFQhBPqEvHo+BIIvGs4zPEg6U5qYAyJrEtfAeq1DGCdElM0hoAeCVQQWhLGvcsbCJ01mhIStVpksUNMC5JBSGxsKioy6nSTq3ZAIVLpGR6VIhupVGkqd8qUQBkWrtorIbRTaXyYE1TPc57uzops/KBZUuymG6tLyKAUpG/dEmswG4+cQhgMqheh/608GZQNQfiW0m8sCUFyaMy65yLJYGIaNXMioW2ALBB45stSav2kQWaVjNespNuapozgMdoXQFiL6AuXVLG2l+NzjypoRZubuXEVMekXmxcYwHYBx4arVsEGwrVczXaQ8bx8Fa3wonQIoGqw2hdpKh+zzsEMBJQE7HJ5jSjTnTQdXIiK9OJUKMFVhaGLpoXkvGvAK4TiEYzo5cWEvQzNi8UuTbDGBoLGW2Aq4S6TGdOi1KgAeCElBcb8wyLcqbZMNLMomD6XzoAZsC/DmDZARjwzx/fAbDx86GopUeK6iBIe1u5RyPumJpQGMD3AmpzkenH2+diyIw2+0SDVJMAjsvbYQcDeOSJUPrZ8OnDjjod2ARaXeTQq5UNsFUDp094KgJSkMTOkKa7mlRocxin8jwHqswhoNDmRLXfR1ySzsA0x5WuMBtA+YakfzthH0MjRbpxyv9Q8CTTzwROA3y/yjnaaXobtBHK0dEcu9xRBjKgm4FfvdRJmQ0VWgUYEKksiZ2zF2yhNbpYitqpmdSNY1JupxTNiwuqjPWL1vOMl6zG5hh8SgvsXPgvvWRb3Dj9lpds5ZoVzZdsi3vFP/6SDXrtxeXx1IAtbqe1gIJWhJ94mKmV5/frZjo84xf4k/9XLwSwf1w9QUBVW71x6Lt51LXQRxRYEa5eaSBJLJ6BOJSPRcE2XVo28ibx5pFHlYpZHxhQCpSJM6GgiL2y3Rr606UUdlw6npXkpbeIF463U0IuFqSK76YZmMWNpcs1Lm1FCOwx37MmHOBUHhS/8vhoBdA/fr51erO/uzs8lTr+f3wbpT8d3lX5F98A);lineShape=1;sketch=1;hachureGap=4;jiggle=2;curveFitting=1;fontFamily=Architects Daughter;fontSource=https%3A%2F%2Ffonts.googleapis.com%2Fcss%3Ffamily%3DArchitects%2BDaughter;fontSize=20;" parent="1" vertex="1">
                    <mxGeometry x="412.1148828350481" y="265.99804960159554" width="36.687271229216776" height="48.72525697693118" as="geometry"/>
                </mxCell>
                <mxCell id="17" value="" style="shape=stencil(lVnZThwxEPyafW3Z7fuZkP9AAsIqBBCQ6+9TzsrDuGe20L7tVWv3VVX2HMLV28PNy91B3dv76/P3u9/H2/eHQ/hyUD0+Pdy9Ht/x6hCuD+Hq/vn17tvr88+n29P7l5v+y/7qx/Ov/g9/TjgN4nJHqft7+iRnaen/J19PgMfj0xqQJYcZEMVXAmhS6wRITbInAJVsthTEt/MAX6WWGVAlOgJIkuIEKElcIACE6CZA9dLfEoDOQdcsia2Qxc0rNDfytp8lL36uQy3iWOFQhzmtVSUQQEjiTZYqbY3opLUZEKVFAkBO5qCLk0RWSCrOz5VeSrkPKDZL2Y1PdgHZS5m3lCLtJWwgz5WOVQJpDfRm1Rmg4vN5QEGrzTGEPIZ2H6DSDMCJkiyhTKbSGqWQLJXl6wHw6C6+gsmS95JJlkqQkubCSS7nf1/d+LvV70kEmF8/c4ZXiaT1sEAyEdSxxXMAPwMUrUJy1AFzyAFbIrzXY56nIbRBO+eCNtyNCYykk2qQYLgbdWFlSJYCMG+V1Lk229zQH8Z7TUcSF87w4siWWhVnWClJZIBmgy7YEpMT5yx5gykZtbaNJpZGqRUAZ9jeSyTN1IqVOLA9G6AGIp0HAsVPJOoWBs2tAIwDGuoULYDO9CI3K4AjW4ICWtX1UtkEZVGj604im6BkyRuVvmyFUiQQ99NjmOuAdqUr1KGxK9UtbIK87aXO/2RLvdIzz4CdGyHX3kvZrsCIqXdrsEHTLWEeTB2yBLalZj0i6sCIaW+om0SC6LwxEw2aqXFmsq4SjoyNXLa9gYFQtkK03AfAJ71RLgLUZjXoky2hv0u5JOgOqBcBlhFe9YZj5gStY9rVUeGFwTIsgBMKczO5WUBKw07sA9CcRqkLJSaopvFL8AJMqQEIW7dBsgRAnFsDfiawFYrlezgmx4Nu8zzAJAYGaLZwcFisbsmOg+N6Esf8LjmSxMwM3I8ZBu7H0hDMJeDEp23J+FID2FImDtHOgn6iJmGYqSVkT3P6cRBeAIUe+iCYZQ46RprVslGThDVZmb3lpFTp0TgvJ+fVnUYk8oNTYtswRiKAlMfhYsVJ7EiWnJ3nbvhIr8ZNr/ZuZMd7DM9ch+aGqO4DgrVj3RiQOuAQqXMduhdnmhuHhi/z4PiEpk0MZTTL/gpWQHGcYBcOGw8AP8fGx9lG6r6elHnbR0qvujaEgUZVFq8fVwvLKJRhSPcBGF6jVH6w8n6Rk71siHWcJM61UXUWwKQtOutXsaVIvF5UKWb+05DTcwCjIzi10hiaVaqc6JVMiLbQ0K5CCCNsCofOYAY3OPFqAcykQ5tMDHD1gfSqFnsDAgC709SF4lYA5qs0bo4ygbKkBmsmETRzParW3/aBI5QEgNFDqAurg27uWLqZZDH4oX6r1mAHbwDM5VvmE4cY1MhbGbec59J64UOBzwF48fEM4v74+Hh6hLH+3j6zwEen5x3h+h8=);lineShape=1;sketch=1;hachureGap=4;jiggle=2;curveFitting=1;fontFamily=Architects Daughter;fontSource=https%3A%2F%2Ffonts.googleapis.com%2Fcss%3Ffamily%3DArchitects%2BDaughter;fontSize=20;" parent="1" vertex="1">
                    <mxGeometry x="491.41980555337796" y="261.054786437094" width="39.02768435704206" height="55.924320996452934" as="geometry"/>
                </mxCell>
                <mxCell id="18" value="" style="shape=stencil(lVrbcls3DPwavWJIgtfnNP2PzMSpNXXtjOP08vcFq5AWlzqr5k2WCR0Sl8VieU764dvjp68Pp+C+vb2+/P7w1/nz2+NJfzmFcH5+fHg9v9mnk3486YcvL68Pv72+fH/+fPn766e+sn/64+XP/gt/X+w0iZZuFdw/P75x4tN/3/x6MXg6P18bRGlxNVCpkRokMMiSPDFQKbClJpE9IUhui0EMktgZvGhaDZLUdmwQmpS8GjRRsqVQ0EspSGFPyBLcapDFZWIQJa6HTk18JQZB2nroHMQpMfCSw2oQJZdjA29hgic0SYEYFElrpItKI4f2Scrq1lIlkkN7HXEdBlWpl3zA1KhVHDuDH2EaBs0c7YiB1RcYZMnk0EXcembvnDj2hFEt8wFVGsm9+WtzfaQV7SSsLmpOCkkkN7JmujSPXzjYv4MQqGR63h9wMtc7XmvidU2iMhDnYH2F9ZHuRyXCesMbkkJR/BqvXKQSgIyY01aXnqxPktf9ZCdK/GPRWeveoKiQmslS67peKXQV9E8HU+L/ivlgaJ3J/qvUdf/WDli9TJCa/cZAhfjTKljXhLMeV0kBGEYE6GjzmyMUghI2pxWGQoo1YFnCYuzj6JDTwLbEoTetUfZVlFVlxm5gP0Hbh8V59VL3G3uCdWUo/JG5t+tYsd0kaawBNsnrkWemH/KQFUgtUxynRlDJFhbWko05AXSZlwt7wlZr5rTKsKsicTGvBQZGDp1qqcrQyIpR1y11OsYMooQ1DEZaM8PTLApszeJAiiFWRAB7ZiJxSG507GlQKWR39gcYaSyBnCHFUe9XIFxJ00xbuRnK0zOUrY0oJcGdX66Rtj7FcNU24KF+GiUW2d/otCxbsyL5Mj7I3JojPqGG0V0OzwAYY/SERNrOADS78G6S04DRKxJMn1DQwNwamZcaYn1/JvGS8ZWyMYZGkK9sNLunI9lSyQPnpoFNGyQ1jKI1mPEyrbgyU+1/sgCLa1rdauAZGM1QPIM1ALalGhGXrGFlZpCwoVhXZ0zbiHXeuzpxay3IDXsXZgb1Rlf3hDfUhluyphjIGfowAdk6RrLb6wNmt6cjYVOkt27wxdvrI07mjhZP2xQVRxGmT3+K69nvF4QwR6cpG/5qhvWFseG2sRgqddj6BgSANtu+HnKUsqq203Pa/e28oBFEnm8FWV6k47jFKxZYX9n6NPjT1Xrm/4g9bSo9R/ns0T+N0GyrFxCOdPCro/UB48Xku/7763k9xawul2RYT/NfBw96z+fI/B8xPx3lpxZfiBdXWyx/Iu7Hs3qpqIdynmb5rzAk8P23bajgw6nb9J/AC6wN/HhPIOUF/HPry/j31Jf4gRNya5uGlWcEZJBNUTTEii3JuiTFrLCN44FyuuYx6Ww2ZVVf5xg3DRptS9a4QdhUpXlXJ7+64kNMRjS2AiqHMS6mq3VZD5B60pHbBtOJV1NUInGobjC4aTCr9TZrtOKEoSiMqeeIyEIu5UyVmpJQ5SjGrRmRVQxc4WqTsXcgFHYqOlA0nPnvCKh2RKAIRm0TM9gl4ER1iz4+gG4f+HCaEDRsAGBqU4p4BosMI+NJJa59tjj+hIC4Z5Mbu91IW+D6uMqe4FDdsemTKdNdpYBrqUIHOxuyGugWcdCNI7EGhQ7ePuNGR2KiqBEnPZ4GnsrHBlv7BSRjSJpw5u/KHjMII0xXg11ispxDTt4HO3YFUXH8DVw060MTDHaJ5lK/JYAuGsZAfKSmFuAZeeixtw0C3uv6NjZ528Bv02ygVL4zKRAvE9eoG9b0nYm8a95batDrwYLszbKLdSC/jYNdkmX8LSF/7rffTGff+/SUlY/uCnCiaoMQHRmAQmXgSS+Ct1wyXKLS/9YUu0LFDAIiX7/MZocOKNbkSnUI70cbn/3BU2HBb/eW1oFYever5q2xM5XNO2Qz1VNJq0sz0KcjvcpryBHrHWKMs1LjWudGxxpXwT0id1/P3qJAQmmzgadXu2FNii5v0ataGBzMn6z6MzJiYzEMhCveQxTOGCzAZWOfbGzwm7qQOXOz2kdOcueNi4R1Y6XMRh+/9XMDC6bYGMqDgtHJHzm09RGQDIyasYkyBOS3xrQcexknjpespkGkkBoSVo6xHja+WSoh66mUG4ZNYVcO2mGCz9UIyq53ejVnNGDJF+ZlzlV7pk9o2715Hel4RMQAMMyAiQ2duQERK7TxqMeLvMDf7jBCgV4qFPNUb1wrMFDViCNovzgnFacRYeYdeI4YtAMvNTo29NcQFQ1Ye/759xbvG9iH99ckv5yfni5vWV7/H1+rtK8ur2Tqx38B);lineShape=1;sketch=1;hachureGap=4;jiggle=2;curveFitting=1;fontFamily=Architects Daughter;fontSource=https%3A%2F%2Ffonts.googleapis.com%2Fcss%3Ffamily%3DArchitects%2BDaughter;fontSize=20;" parent="1" vertex="1">
                    <mxGeometry x="188.2814077336932" y="55.906289975057916" width="58.70124027154884" height="93.65806368116284" as="geometry"/>
                </mxCell>
                <mxCell id="19" value="" style="shape=stencil(lVfLctswDPwaXXdIgg/wnKb/kZk4taaunXGcPv6+UDVUDNpEJzdZwhLAYgHQEz287Z9ed1Nwb5fz6fvu1/x82U/0ZQphPu535/kiTxM9TvTwcjrvvp1P78fn9ffr02K5PP04/VxO+L3iMmpcQMH9WV/EAFf/vfm62h/m45W9L+CkAR6BxwDxkLUHqog0BlBE9RqQEfMYEAleh0QEF8eA5FG0h8DIZQzIDuQ0gMBuDCiSQ1AATyZL1YGzAjjbnhBTZ2+RWhOYNUeN5fv25SYB4cAKqIJ0mX2FN4rgnYPrSK0IhvTEBVOvpGIIozK4E3c1lSRZew1IBWQIo0qddQ45IFseQjtvA0QUwwNL0lqrmZAM6XFB1JVOjGqExAlZl1r6IxuV44h4MzPICinCaXGTb/IaAVLXoB7JkIbkULQHH0y5CktZAxKCVWgRqybJoVpaDS3eD3tnUCT96buMES370k8kaVir/0UDel743DIaNpsWqjDEloeK2k2YDLJGjHR7t0kEYHFaWqdsNYt2EUTZughZdpWVA7XPV90ZjVb4NKA4ZF1ndmahZZ4ETas0RzWUmm42g4yQaFQ6xjYTG0CysnqHUgtgAyRTfKJNr+uwrBfrksHwXUjc9td9WnspXW2X+ywh6RG27C9DrNSvw5qb3O+n3A9h4dQbFHmQPp8ZzojH9eezb5toYO90viU1ikf23V6Tkhj5bpeDq04j43x/s2i3ATjgs58VsvotjSJ39tssGOghdCtNrpDG+Z+9Nv/fXh4+7ugv8+GwXvGvv/d3enm1/h+gx78=);lineShape=1;sketch=1;hachureGap=4;jiggle=2;curveFitting=1;fontFamily=Architects Daughter;fontSource=https%3A%2F%2Ffonts.googleapis.com%2Fcss%3Ffamily%3DArchitects%2BDaughter;fontSize=20;" parent="1" vertex="1">
                    <mxGeometry x="277.84904456315417" y="104.6979793581911" width="30.306829300063555" height="7.463081400027136" as="geometry"/>
                </mxCell>
                <mxCell id="20" value="" style="shape=stencil(lVdJchsxDHzNXFEkwQU4O84/XGU5UkWxXLKy/T6YTEkRSE07us2CJgF0AyAnfnjfPr1tphTeT8fD183P3fNpO/GnKaXd63Zz3J3saeLHiR9eDsfNl+Ph++vz8v72NFvOT98OP+YVfi24QpxnUAq/lw9JSeXvl8+L/X73emUfE83/PKDoOiAlEvUA2zOtAzhTbB4QqMR1QA7EHhCFOKwDSiQpHsBU6zqgJgoeoCRggxYpBmcvlAqwF2p+/UYB5FQsg9HZVwrAf9He/xjOSb4J0DCQRgoc0svvs32gABKkhSJ7hyDFavmQLkEMAlah2gVcSQEDqj3AKE5ghxguEZ4RmSmgGIYtSqX2QRC+NqtCmm9k6bLEf9IgmfJdPJsUoTAGIQlW0ixVH3QrsNak9WmtFhXoYFJJqufBehpDQPMuscAOZi5x1yMzKYpBqHiANSTG9Zm8S7YBItoi9Mqwlorq02TAvT3SdqXcen+wtKP0AWfkkBLrkFJAmgHUszyThlyylu5TOssCcTA0VRNewk2sU+osbRTDTQASXumFp/Gs3dXB43kzZTU0qWI/nK1gG6g2G50sPSABlyzrJfYxBACw8a+eOFMvAx7sgNG8NEy+AfCQuK8G028DgPGQdDUubkfdH8PmaYHOPMOBxDo9WD/14rbWX4GS4g1dCKge48CTZoOkgOIJ/QGmNYqA5GHYVoFjZLQPMD+DPybDDOpgiDcXCvfkk7GCBr6YSUE+Bz1wgPm599j/sb09/LtjvOz2++WKcv2/v5PYp+U+w49/AA==);lineShape=1;sketch=1;hachureGap=4;jiggle=2;curveFitting=1;fontFamily=Architects Daughter;fontSource=https%3A%2F%2Ffonts.googleapis.com%2Fcss%3Ffamily%3DArchitects%2BDaughter;fontSize=20;" parent="1" vertex="1">
                    <mxGeometry x="279.8257564438127" y="92.92390197446639" width="40.73141444299358" height="6.290693580427728" as="geometry"/>
                </mxCell>
                <mxCell id="21" value="" style="shape=stencil(7VnbchQ7DPyafVX5LvuZy3+kikC2CAkVAuecvz9tFg9jeadTvFEFb8mMez2SWi3JPsVXX+5uPt+egvvy/PT48faf87vnu1N8fQrh/HB3+3R+xl+n+OYUX71/fLr98PT49eHd5f/PN31l/+vT47f+C/9ecCVKbB0V3H+XJ0lq+f7g7WX9/flhv95JyNN676ToMSBXcXEGYAcGyJLcDGiSEgEEcfMnwYbijgGpSqgTIDrxZIcUpaUZUMTHY0BsEvzs1SCRAZLEMgOqpHoMCG28HoCcJDMAXs+BRigpwIkzgCKBeMnDJ7PR6mkcfJA6u1ULjXSzTqpxPLm+QbNkrUl8JjZn6e9mgAskbt6agE9Swm4wwzkLSASQ4FWdAUEa8SrSoWULcIR7uY2wbgAntRENSOMDtrg1KcRLChNntyLQSmzQauOAn6gEABMt9zb6XgekkY8buzNNhwryz0ZD2VgcqkqYA4fIZEI+AIzKpCxKAlerNbqzi9mgogaQaEoD4AwANjBAkWak1UvkXopmhxcCp3aHgDgwQLVuBcCROLStGGwApeLdvOTZhlBoiWtIUbUAlg8tSYrLDkwps9RgbQhEKhsivRjdmJeWug63ss4BADU7NL5DW+jtqXrDBrNDzOPJdUCxupTAVhY4tC6z0dmJEuVrcSjpBsiDv0cAb3TJS2DkCxKWMp2Yl/zQ6l2ZZikKgKGGgl08gYxqoMZl4qXaRgncAIg9EzK8nsUYhKcyA/LNrQNiX5m26iDzBoDaMpkptiEDf1ngUIG0WQBLoF73kwVQ5dvSZQegdbqNErgzWskOqNMmgZCDrIqqju5oFwfPPklHfm0ANLLES711MEZHcSSnYbTpBEB42ms4q62N90sInGm9AUicGiktAEaNMtJlB6DUUCsCMLqxHaqUaN0aiFvr1orsAqcsp5c6DWqwsguAGbKa0t57bU5A78Z2gKgsOc3qdNe5WTW8c6PhP8pRjXaLF9jn1AJ+1MmjhNBsrXYMoMMpu0BQ2dBxArBTY9aH/jqgLiPKluZHSW0KROUDONwa5shp4u29s60AJg66g7fnGpg4IpsHgu2w+uHLCzozRzonzqVoZ8vUeKGOlkspcWFaxqzY+Jj1d+L40Xz/jhMH+6Q/cuJotjuJ/DRnVw52CRFIyvUtZvalQk8GAXDzN+Uojeh9r5rzDtAZJhst24TAyFHZDtEGoo8cJIOQEGpOmDLld1cBswNiyYRpm6p2BYLNihpsu175JFeQwnMcICRMK/ugtxQ5JeyDuq9jE/ukpHaHPtuRSIObJVsAowbEOpmeLNCaFfIoODtAIQC/HAIDwFTAR3tE2wHsxHUMJPtemoRhyWhUSfb7yxinSvuxbDUGVKT5vJxsKm3t4SBTTEqgXYCv9sIlF3ogAJOrOTuFwrC7B0yRMwB9BstO8M70exEDC3FSLNboTl1S35KzQxwKIktnfLE5/wVTGuOdjkZnGx4K7YpzsMLN559+9DSb4Klc5MVHflycXV+vdiBztMfoV4PFrKe/v9yduNFCHK03dYrPYih7JjMdrSEQbDMCuEHb6+vDuA776U92uVSivXLw9KoV6y1FKaWx3hyKRTpUYX2xd8XsZOWX75ZfXI8/fl5kvz/f31/uwffv7cU3Hl0uzeOb/wE=);lineShape=1;sketch=1;hachureGap=4;jiggle=2;curveFitting=1;fontFamily=Architects Daughter;fontSource=https%3A%2F%2Ffonts.googleapis.com%2Fcss%3Ffamily%3DArchitects%2BDaughter;fontSize=20;" parent="1" vertex="1">
                    <mxGeometry x="330.23985320113775" y="77.10995645620301" width="46.50509568162988" height="55.26007418006759" as="geometry"/>
                </mxCell>
                <mxCell id="22" value="" style="shape=stencil(lVfLctswDPwaXTEkwec5Tf8jM3FqTV0747ivvy9UVY0BOUvrpjhYElgAC3Dgh7f90+tuCO7tcj593f0cny/7gT8NIYzH/e48XuRr4MeBH15O592X8+n78Xn++/Vpspy+vp1+TCf8mnE1UXETKrjf8y+RSvj7w+fZ/jAer+0z5arsG7kC7CulpOy9XOA/BjRHVTsUPEVwQwuUiwYUaggQKUQF4EgxAUCilDVHnhjFkClpkmKj4ACgLCQugBSpZQiITQGyg3lrlbyOIUtmMKCyApSE89Aoalqrp9Y+BnjnyOlUNyZGiSjEpvjEpwqqr9liej/iJqBUcpqmiQeQiCwe68wJDwXQFAsFnbkrHm4i2NtcyxUpAmILZbZBRAZR29qQAi6AJU/exByhvbMhTz0L/ImUg7Z3Swfe9oetiInsIIeCNKj2qBZY3NLwTbtUMUVJ+s1tARReUnSnS3LePw26M2jpFds9mNapkvUNnbytNWMqDCABcl7VmjFVHgDUQLzqT1Tak8oZBcDNkyTEjf0pI9HbK5AESP+0VX8ikfGOvGkgLGNh5RHWya1CvN3eDNDeaLAC05k93pZRZ7gFSpqfzvQMNmGd8Sy9rNWiM/+jHZ2dBUOWNs1nZ4ORatH+91akxds7dzDvl+vv3PJEsdlIPFwj5TjesqZ60Tqz4y0r2W37Sqw77H+J3C4IpqC11FNCLd8Wdxd7WXPB+Vys/zJD0XxarfFYs6R+zfDA9lkUJW/wpzjLD463iOzzBj5FP4zC4XzVaB8JuB42P4u69vLx/gZ7GQ+H+Ql3/X/7ZpOf5vceP/4B);lineShape=1;sketch=1;hachureGap=4;jiggle=2;curveFitting=1;fontFamily=Architects Daughter;fontSource=https%3A%2F%2Ffonts.googleapis.com%2Fcss%3Ffamily%3DArchitects%2BDaughter;fontSize=20;" parent="1" vertex="1">
                    <mxGeometry x="369.9195753594886" y="105.81645917094227" width="6.16084928102282" height="46.27750806199549" as="geometry"/>
                </mxCell>
                <mxCell id="23" value="" style="shape=stencil(7VjLbhsxDPwaXwmJ1POcpv8RIE5tNI0Dx+nj70vXkLuinJED5JjbZqPx8jEcklrJzcvm7nm9Yvdy2O++r39t7w+blXxZMW+fNuv99qBPK7ldyc3Dbr/+tt+9Pt2f/n6+O548Pv3Y/Tz+wu8TLjsK6Yhi9+f0himUfy++ns4/bp+W5z253J0vlAM4L8S1O+/1jQOAQEl6QCERCCi9RRyIPTQpcwcQRzVBn7n0gEKR3wakSi52gJBIECBT6J2O6gNwWgGlT1vyVLFJuTdJ3yCTMlPpE5cTeRSlRLk3qSiVQB6Kpxh6QKaIAIlin4fqKQDy1TgAItUMALn93hmQKAGTFCC+B+ibCADK1j4PtZADYa2ulcsCkFGUhJLxoRKjxEWbBwUkEKWkZC4WgMgXNYg9wDtHDqhAyOR4+AQASKYaBydABcnZgGWYwBdYrDBpIhJIta9NhhbcqBUA8mBSJgaJ8GkAqJIBp1VKjUlFwwrIpFIaqwU4AJBAwfQHlW+U6UTFmJSboF9mn2u6tQBkxG8ZfNA8gB5XIjFbH5AwaVG7IazIaaWaM1zSMkeyMch3PTelywAVa0MNhlxSF80gUIU8ahB5qAeBo0AKgw8BSl/0reFcCdC2bIaNo0mgHji3YWfpNMi01rTpu8ewApO0RNmIq5/VdDU+uPYTl31gcqaN1haGt5TPtKAJvQNT7Lk0KaAYKRcLQCWaqk3cRAR0dkje+gArzg+6hIVMpbewBaAmt2hp16rxuxF1mBM/55MPmk/MkvI5n3zMfGLmvgldfaRgvuAhmRRwYRgAUVKASZxuKRFFSdqAtNiDoNPchGixaQXAvtq0dLnKoRXc7iiTXTFaIZsso8O4NNl2hy49WacHYk/2dWc76ORCwNulb3LjIFRMd4NjTGhL7XUXJkrQvu94Kmj2tGrqYa6UbOYuw7Vsv7UAmIp0kJtqfhZz3oPgiNgpcqKjvn3+yvOVfHyHParsJp7Y38SWzDieadxs8UVPtaMUpsO7r+em5/Xh/13gw/bx8XSVuPy/vTvUV6d7R7n9Cw==);lineShape=1;sketch=1;hachureGap=4;jiggle=2;curveFitting=1;fontFamily=Architects Daughter;fontSource=https%3A%2F%2Ffonts.googleapis.com%2Fcss%3Ffamily%3DArchitects%2BDaughter;fontSize=20;" parent="1" vertex="1">
                    <mxGeometry x="430.18189100039126" y="80.40797671438827" width="4.8565262227321" height="64.24633415048663" as="geometry"/>
                </mxCell>
                <mxCell id="24" value="" style="shape=stencil(nVjbcloxDPwaXjW25etz2v5HZkIapmnIkPT2991Txgcsh2XoGyFebEmr1dobvXt7un/dboJ7ez/sv21/7R7enzb6aRPC7uVpe9i949NGP2/07nF/2H497H+8PBz/fr1fVi6fvu9/Lr/w+4hr0tICCu5P/yLXf198OS5/3r2cLfdOUhzW+yS+EECQ2AZACJIDAWSJdQQ0CQQQVMq4g2ZxmQCqpDIC+A4axYUBEAMNGr9njhSjJL0MiEmq2QFpcJcBydsYYpFECpe9FGcBjRwpN3FjpXHIGC8DSupZXwFOIqlDBZfGI2mQSmKoUcq4w1J7TwDFks9H8exIVcJ4pEJjbmDGSNZGD9R8z8h6IKSZMKmCmWMVQhTlIfuRSUuLsx2S6BiCgoxsB5XmbTc4VrYgadSYWCUTclffk94BKfEsOckjAHQPiQL8GHTOUkmhATASULJo4zuMlUbeKLmd6BgDyJVYHaYjtSyBZKk0S41WaNClSDGARpUVEtCyBTAulWhFxjuERbhRoLzJbsHmSZlUptUuhZeELySbJiVpyrVr+wpIkgk3AIgGgJ4iMQBgp3SQwPKKJJodnBSi9mWaJ1CezEqtfT6dARwJGtxQvQlQpg66cqRqR9wSNOP3NKavpHXpUbMDLxwAZp6AGox8OJJxPwv5iJIh6GAqzekN3TKVvtZAsZP5hh4tt8mAF+ctgAkNejR7myYmZXnmBhdLANRwg8vx/wCMOamYQcyR1e4tVoDrs/uihRsBxVNHtkjfNBYdYR8AdUxrxtxjLeesF0jaZ/dFYTJug2cJ5MuTDWX2BErWjAFSHgPUfeygkKn3XuboGENA4Zif8Z3MJ1vZmNnI1s7g1kVaGsw0v88b+qzhV+pRVVo0yMx1pIidqFgXGpADQlXoqLmIXrPqaoUSZWamEsNDR/ejlV7iYL3N0I1KjQMcoSnbcidjIxG+2XSP787gErfT7KSZ+SnWwaU1qo8BoSdxBVQq3TiA6U8APLsbN+sDcCQlMeA6YriEPSvJEi48RrohSmyGgv1mSicnjQFCtzpnlY6k0miXMHEpMYC35NPV7n9cuEn1Yg/q4xC6Jq79lmjZnPWHPlGqTgrjHe1n1wfTSSKVHsdwotLx72x2Cr11+25v1jFIR3+wrz2JukidelIS67CpXyQyp9OV/LScDmT7gpH55b8PotNyZsnB2WbyzljfrKurV5bf9Nh5dTk+nN5VH3fPz8dn2fP/23dYfHV8w9XPfwE=);lineShape=1;sketch=1;hachureGap=4;jiggle=2;curveFitting=1;fontFamily=Architects Daughter;fontSource=https%3A%2F%2Ffonts.googleapis.com%2Fcss%3Ffamily%3DArchitects%2BDaughter;fontSize=20;" parent="1" vertex="1">
                    <mxGeometry x="432.8496234026843" y="83.27293607180547" width="43.23341718546476" height="46.99726692050058" as="geometry"/>
                </mxCell>
                <mxCell id="25" value="" style="shape=stencil(rVbLbhsxDPyavRKiqOc5Tf8jQJx6EccOHDdp/77cLtZdifYkBnqT10OJHJJDDnL3tn143QzevZ2Oh+fNx/h42g7ybfB+3G83x/Gkp0HuB7l7Ohw3P46Hn/vH+ffrw4ScTi+H9+mGX7NdIgmTkXe/5w+FxP/98H2G78b9Cs6Jqm/wlTzAi6PY3p+J03V8CBRcg4+U4nV8zJRSgw8kch2fKrnWf08F4HPp72fIT/UkscE7cg7gA+Xa+ZPQ/cp/i2dHHj2gAXQPMNUADCplaQwkUQIUsTuHeM6Zp8zwiZAbg1QoIoNC3AZRlOcMaZLWJU1MQVFLz6u+iQqjMsWuESoMulTiltcaSQowyORKG/Q5qssGkWJrkIUCckmLrzWIZXnzqkHLUtBiusklFZwIEmeDZlkK+Iu0BtxAJm/aP+B+bdCuuJn4psrDgmdLm1XScH92zSMaEsjBhf4MmQT3ZycBSUgQSUZkVDcdZql2tV2pIJdM5dWMXTJCvOLhP1nY4TARAfrHTh+NAlWTHW8qGgkY2PmpzAkYoHZAf6KUFzYAt8jI5aD7DUNbEJEUlkJY3R9AyLJMgpVMVlBKnri9vzCcoNwrkqoq8t/1/qQA+bHTMy5V8jW85rwCfow/EuHKZuKdMgjwhk/WyQn4NPlShXegk209UEQb3m0L7adwPfzbnZ/G3W5evdf/97u2fpr3dLn/Aw==);lineShape=1;sketch=1;hachureGap=4;jiggle=2;curveFitting=1;fontFamily=Architects Daughter;fontSource=https%3A%2F%2Ffonts.googleapis.com%2Fcss%3Ffamily%3DArchitects%2BDaughter;fontSize=20;" parent="1" vertex="1">
                    <mxGeometry x="496.83356293517454" y="107.38234276292042" width="34.157058092204124" height="5.235314474159168" as="geometry"/>
                </mxCell>
                <mxCell id="26" value="" style="shape=stencil(lVbLctswDPwaXTEkQILgOU3/IzNxak1dO+M4ffx9oapiBVpCpjdJxAqvXRADPbwdn14PA4a32/Xy9fBjfL4dB/o0II7n4+E63vRpoMeBHl4u18OX6+X9/Dy/vz5NltPTt8v36Q8/Z5xAwQmE4df8IUAIfz58ns1P43llrsdSjH2GJPv2xBCrsRfIad8+I0Qy9jECxX0AFwj5DsD7gFIhBQug5RebgJqAowFgAnFqVDUkmzNFqOgABKr1kNAPqYKI7UKC6JRVAdUmzfxhSGwAWrfgeSgQLUAqoNOHqay2SpVdKtUIYqk6ZeV4EAGhHkDkALjn0hSk54GgdElrDk6VBAFtH0qG7PRBImQbEvtsVYBYQA5AXkgE0YZEbSZsA/JCtaaHJqltQIFi2YrkSrQGKLZxGAGdxlUCvvOAHlt5IcIqh1hcPVDtq+QlrVRjS42kbHU8xNAmb2s1AnsxKZvtLFYyRa+uBcR2Tunqjg0lp/WggkieB1wm40py6NG19qJe1WFPpLVTNQN7BN8EODEV6QmuhPw7q7bvIO41pz6z07kcew+SAB3NUYbQtbrdGdtsqovoGwDdcVwW+jfyFWCnDRmoI2tepu12BpCtfriNwu1FA6LlRWY/4V48OvbQ6Zme2omhV25x4rkTJyW3PqHfe1BvBod04U4HsgzBnXy7PUzXHvEWsT5fdteqBNUyGt1LhHvZt/S3Jfl/S+eH5vrwb799GU+neT1en/f7sH6ad2l6/A0=);lineShape=1;sketch=1;hachureGap=4;jiggle=2;curveFitting=1;fontFamily=Architects Daughter;fontSource=https%3A%2F%2Ffonts.googleapis.com%2Fcss%3Ffamily%3DArchitects%2BDaughter;fontSize=20;" parent="1" vertex="1">
                    <mxGeometry x="508.79934591310325" y="121.80913828152927" width="27.69843316894503" height="6.48165800712502" as="geometry"/>
                </mxCell>
                <mxCell id="27" value="" style="shape=stencil(lVfbchoxDP2afdVYli/yc5r+R2ZCClMKGULa5u+j7dYEC5Dx2+5aZ3U7uniih7f10+tq8u7teNj/XP3ZPB/XE32bvN/s1qvD5ihPEz1O9PCyP6x+HPbvu+fl/fVplpyffu1/z3/4u+AKgkszyruP5UsAwn8fvi/y283uXN5Bzo08ImA0AAgRW0CCxAbAgy8NwCOUYAL+H58AGTwZAILgGgB52yQCbjUQg7OcliBSG1UCbwNya1LgGrfrgAjsG0DsmJR1olMnDwzYJi5HcBag1OMKYAJMtwHoHLjW6zkO3nSCWhUlQTDCxAVYachQDA2ZdZjELXS3AYmAsgawoSFkze+zOFxFEEIoWkUyCI65Hp8ADNkgR655OotSMOSl5JXPQkcj0067LHm2mkaA1JJbajwaEULS5TP3tXIb4BNEZZEzyydgpc2J3MUsUClHdCOALF2JRkziVDv1nU5LknT1eLvJFMhKg503oRkrH2xiiAGqs3aYxx5IUdWmduLKnDuLJ8osGKxPaaSoVbAR13mgkQZYTQYdYNFhstqYv7DI7pOjjXhcXldPZzQAt/52Zs/FCtAZbkLjthI601MqZ2g8R0htg+zM/6QbcGfBEO+GNpiL4d9ZkbIu/M4OxnpC9Za8qv3OLZJ1fu0tda4XtbCBz4Y8QYqtv3ViXZcv9Xcn+2vzvjVuUss3WaONcFKEEJS8RZ8QK1u+5K2OFQOUEfkUIKYBe2SWqf3X9pflmAbiOY8+xWczX/MaqOrL5MPwragrLw9fV7CXzXa73ODOz/WVTT4t1z16/AQ=);lineShape=1;sketch=1;hachureGap=4;jiggle=2;curveFitting=1;fontFamily=Architects Daughter;fontSource=https%3A%2F%2Ffonts.googleapis.com%2Fcss%3Ffamily%3DArchitects%2BDaughter;fontSize=20;" parent="1" vertex="1">
                    <mxGeometry x="561.3904219713722" y="100.87280883140818" width="5.219156057255532" height="49.382320600645016" as="geometry"/>
                </mxCell>
                <mxCell id="28" value="" style="shape=stencil(lVfZbhsxDPyafSUkUhef0/Q/AsSpjbpx4LjX35eqIceiNxPkbb3WrHjM8Fjk7nX78LJZOLyejofvm9+7x9N2kS8L8+55uznuTva0yP0id0+H4+bb8fDz+fH8++Whn+xPPw6/+hf+nHEpkGpHcfh7flOotf8vvp7P73fPV+dFqbbpfExUBAAqaZ4AnCgrAGQKZQJIolQAIFKTCZCYWngfwI1ymgCZiYHTFhNxAKWSACBR5TmqjQIDAFOOE6AWisjpRBomQAtUQViTGTBHqTEJAJQ4iHABCBVgUmVK7AEN3NDMxeZNUgRQUr4BgEyr+LB2HzIAFMp1BuRh5DqgeT20SgL0oOaDM0mpgbAaoM3kUyML4JKZlGeTNEPymdM8K04rxQjDGmcu9TuBD+ZintlqXjEwyaJeqwcEENZOZvYmBUCNqp4aPQxA07UOyV8AQooAxUtU46gj790gjnzGLuxDcEXAKhVIXIujVl8AaYh2HWBlxpkkxOiGRsUBeJTndS5Z4rK/AflgZL71oaAi0ChmHyXEVqNaKT4PqC7FEHwiLNWoQdgVXkEJCqIr0rGvUKoAkAabrwSBOopa/3AAoxfw+tOAzu8ZcBW49R6UPf0+QlgnT+qNYgCQMiR2VfyQ6Dh4m3p5RbKm5hRhMxRIxA2XrLMn8P3ou2gNg/DrHnt7Cg/NrieBZLYny5if1nnhaZHyaKrr9luBmPUpbYxP64CbJi0BDq3xpoXavIXUxpfR6MI7gWOABdU5nWHO+EadCdLaPsdzEixneGLNzgFY8mwkdkkOMAUWcDcyBBgf4TEUvZ1H/vaRP/rvAw6Zil3rDFDExrAYfHzQFqO+rDCs77ZWJUdRUhD/vobNIjb+APs/u7Z9fN4e3nbEp91+f14xr//3O6W9Ou+jcv8P);lineShape=1;sketch=1;hachureGap=4;jiggle=2;curveFitting=1;fontFamily=Architects Daughter;fontSource=https%3A%2F%2Ffonts.googleapis.com%2Fcss%3Ffamily%3DArchitects%2BDaughter;fontSize=20;" parent="1" vertex="1">
                    <mxGeometry x="580.7109799611881" y="100.77676321499052" width="25.60959553800967" height="36.08298900124737" as="geometry"/>
                </mxCell>
                <mxCell id="29" value="" style="shape=stencil(lVfLbhsxDPwaXwlK1POcpv8RIE5t1LUDx339fbk15Jjc3QlyW681K5EcDkcbeXjbPb1uN5HfLufT9+3v/fNlt5Evmxj3x932vL/o00YeN/Lwcjpvv51PP4/P19+vT9PK6enH6df0hT9XXO/U4oSK/Pf6JlGV/y++Xtcf9sf79ZmSmPWBiTMA6N/VAirVsA5oQtIMIGaqfR1QMxULkEyxAUCgkmzMTAKOVBolG0PSHRAgU7ZHykwBZKlEasUCEnUQdGHK9khFqEQIqDZoTQMnAAgk2QIqpIbGwJYaWsqMjhQHEW6ARlLXAakRswH0Rg3EIJ2qjUH5XsAOwpTskQLz2HQREZl69VsguoZIKXoAl3VA9mztlRqg96xuvVACEfAsqWlQZeX71Za5CwXw/TI7z63/lr+vAtAtgCGPYqTgeKSqBrpNgm9PBVQQgupDS/5IKGZlapvF0EHRpnZ3VYhQxHKjmH0ZUC8owCmGankGIpbzLOg6Er0M4Fmlb8K5nKVIxaqetkJChRNfOAV0ANBpxrMdOuBSyJ5LChCwQ6Uyi1kQWf0o0e5EB+LZeTIJ7GY3z5UWqNvSaK073iFmh/kGDJttAoTPAJLPUCsf6GNw6xnqV6Zuz1MTZGmhZjuz1NF6ywbG67V2XgNzc57RnGDAKpBubqYO7UgoQ91ugDSStjbUnGnTSYpcnhbN0VRbtaMdVL7sFIkd8k7iGGI3QBpGcU2zXZY0DQl0mmp2dv4FDvIslKy26IsPJN7OhDg2XF6vdss5Z+hd1LA5NWWojaV4r3MzP2u2ufrvM/Ll1c9x7KRaHBPyfT3yzGoWI7v1KJ8qbM4BBwqADyrMUtx65LsmL2r7OI4CrvT9zHkJFK7Fu9pn15sE6cP7xfBlfzhc75X3//uLpL66XkLl8R8=);lineShape=1;sketch=1;hachureGap=4;jiggle=2;curveFitting=1;fontFamily=Architects Daughter;fontSource=https%3A%2F%2Ffonts.googleapis.com%2Fcss%3Ffamily%3DArchitects%2BDaughter;fontSize=20;" parent="1" vertex="1">
                    <mxGeometry x="602.9073118774513" y="108.83077346289804" width="9.254442058407221" height="52.7845541665597" as="geometry"/>
                </mxCell>
                <mxCell id="30" value="" style="shape=stencil(fZbdcgIhDIWfZm8zQAg/17Z9j85U606tdqz9e/tmZ0c0uJ47xP0I5JwEBl59bp8/1kNwn6fj4W39M76ctgM/DCGM++36OJ50NPDjwKvN4bh+PR6+9i/z74/n6ctp9H74nlb4nbmSKZeJCu5vngmZ6jzzNAO7cX8FVKEsBuBKrgKg9oAE8gkCbLeUhEoEQKSUDZDLeWYRKIl8MEDRmHwfyBrBG6Amyu4+kDxxMoB3jhwgYu7TVAsVkFcWCs4CTBEoF4RctKeOxHIf8IXYpikHikAIf+MNUW94AGSSaoAoFIE3AlOyeWU+p2E5S9yfQZcQILVuQOwZdJNoS9Ls3wA5u2XZTIHECqeJ9kDpSaauRiNVcAY1QhdBzeLBli5WazpkSsBLV25uRaqWRyFawTQzRRIQYirJzq5atkBqLfouwqUxLBepthWb10vrWZY6UOAeyKCCtDV625mm9gmUC4Wc3VLJMMIE1BsA2FW9JraVlQB7n3c9oMKhCLEvIM1zBPZ25/umNQ1tVEC2G+fFCC8g398O2hNQuQlVu752DBfA+q0ptnqO5JFmeuIuo9DY7KjY71UxdJV4EntifPWorW++R/dC4t7V3DlIB5cHx2bc7eb3yvX//QNFp+bHDT/+Aw==);lineShape=1;sketch=1;hachureGap=4;jiggle=2;curveFitting=1;fontFamily=Architects Daughter;fontSource=https%3A%2F%2Ffonts.googleapis.com%2Fcss%3Ffamily%3DArchitects%2BDaughter;fontSize=20;" vertex="1" parent="1">
                    <mxGeometry x="548.8679608424759" y="285.8753124585194" width="4.672539772115215" height="4.665236216357243" as="geometry"/>
                </mxCell>
                <mxCell id="31" value="" style="shape=stencil(7VvZclU3EPwav6q0a/RMyH9QhQmuEEwZyPL3acXR8VHr3r6QyiNvxpzRMtPTs8l36dXn928+3d9F//nL0+Ov9388vP3y/i79dBfjw8f3908PX/DTXXp9l169e3y6/+Xp8evHt8///vRmfDl++u3x97HCn89yIbiUhlT0f/37m+Rq/uc3Pz8LfHj4uApUEvAu23WB7rxfv4+u+uvfN2e2fl9dbde/r6635fsY5HmqS3n9vrkszlNdWNdPyXm5flnXT1i/qvvGwOuHLg0QVoFoziuB7DLdwOsdirO4CuRpxMsCuENZBUzaIJjr6x1ynGq4KACbxr4KFOejEMgurDDK2VVxpIGLFdepuyhwN4BKl06uFCHQp04Ow9XpSxcFUnB+1VLorgnfTNGFys7chVohQHbAnYWhB/TXDbJeP83lDh25KnxhaJCwPX9x7ftOZOGKQAVwXFZX8FqhxcVK30e1fmWy89Jx8H3j9RW3DCrh8ytugRuGSPoJ6vzmaiH9Ky+Di3giOxfUfTvrM7uk7NtdWvVZpgGvnT+tNIFg428IrBcGNSWFiI25RoAQKsqeTQCnS4ImcmAbACWKTAexeRbw4g4Z63U+UlQCfSrxdOks7FbghuuRhuMogcTARtRKwnAFxENphZ9seVnAZlozBeB7wgw1MFVgg6bykOAaJUYww40dVmTAOxU7QiCuOyDyRxFAqnedsFf0Dt7ZemnE5a52CNPfDwf1rmgBAms5fPayQOSQUIs+UmLDtTRZ9rJAdm3VkvkJ38sCxbX1DladCf8ZJ14FuuaAusWpDuZXO4TpwC9o1aEHaieJbjOYXhYonKj2KoNtAXQq37ornw4zGBx6BfEIU4OXiCoNilNUaWyIhqRMsXfnJA9gUmkkLu1XH61QtFYrhVAgPgm4FvDWyt5FawmWJrrHntJHPZdIsEwTWsKJiQVyu+Wjtu6AIKbYe7gcVUnddeVBW6Z0IyjW7gKF3Shzk+bZDmBjxTODhojvdXbb6kw2D6duE7+XBYyPhFIuiEtbnKXvKWapbAbMSPSNkkRWt8YZMTKBIAzXmkukpSzrf+xANIMiRiWJFiaVngo35aK2uSjycFVxg7YiFZ9B9jwGMa7gQ3mr0h9Qb6B6+EitLwuYK0QCN/o8L/HjHKnVFp2ThxFZxRaIaVS9waei0GsHmldybUXSRg8zxzvxvRJAIKeS2zT6dmzYccjLApkDxMsSlwUSkyuWyGqHyJ0MLKFqGjiE0Q74jcJ3mFH2lDGpAgICdUUfvLYILOEO1OQCL6ggBwG6A6BhwuXsiONnLCmBvAlkGRVh19pYQGVYAF+pfCRVcljjchohoyvDte0OJnM4CDA0vOwQQYChEWYKdU2AasuBVrVD5Z7A8AclcFDp2eO0i+4C0qcTh9EBFmWHyJbGEqoahRIpQLyE7qset4ZRGM4U820CoEqZCuBIK/PBRVU6My5NAnX2K6+plezQiuwifL+AbQJeJn3dc7JRj973N0Z2BEWVO/TEzXek9ybAhxhHLayR3iu12uwxHgK6SWbHiY9kw6QAkENtzZwk8wE5mfIfwFGlxmnrbFQZFFuYaeoh4CW82+EuR1p59Kiu7UDwRrauPK5FvkNIMsECmIlmumSZZtwvMglu29pFJrtFg/ao++5ll2JkV1t9okomqzxsRPUgifWobA+Boo8UtiquaTP3bfymC0uQHB1pzHUU8hI7Q2qy5wDk2boDvEcFB2Cb7oByQ1262mz3nsoN2Y+q3CIb5YbaIXMtUJosHmriGmu0FtVcNnDMrUUeCbxLzaLa5fQHJyYmbjoNKHu1EebY8toOdSsemrr0Nn0wkxO7sk1o4OUKrcXYp0FTcofGdSXQJS+9dU+L5r3RqSQsHa8crg4TyIGSbFJAwGiCUuTgDkeiIg40U/QduA3iZcMLWCo0ycqzZ3bN0hQRQ5XVxnBIYr4op33jDtSZuQG+OOPNSa1VXdrPCcuJ+VQ9kxtPyHOV8B59ydUOyH1UoyX7jYybnvJvM1rsqaAxdELtqC7bJilNJj21NoOaiia+NNCqoIH1OOwmPdiN3L8KJpOllxN/Y67xvzxV0Dr68VThx1OF8/ff91Shcy+zyxg1XlQRXWf5PgkGoLcQtyxWWUPjfZJSUeZeD0BuysZxdqdOdB2UUsMcX5zIVNW2YwSzahUxpQm1wkrUEUPUaoJMAbNMO1Q5cxwDksQ7KH4PldVaNFRRNrZtGKDSl7C9PEDIUc423lZQYG4yG8GRKM4Cv6rnhh2o7TFSMFWs8jwDJYzqGBQe5CLwq3iwNatuTGQ842jUYPJ7ot8xUxIa9VwqJC9TI890FHVa7nkiG3UpcvRnTtljUuzC5BKOtyZX7EWIK3L0aUwUUT9A9ZwS6QEd8Exwi5Ldw1GWHUWObBNCedSqgY92QXT7BkH3qEO5YDA1CgtbBTLqA6XTvPWzmnxcMR4mFxZQc6fxmpW0ZHK+PRpqtgmoO0R2g2D66XPcHhA2yUPDrpuWVP9okHVnO6gByXjST6lykalX2B5XwzLqJfN/+aOBWwL44eVvFN49fPjw/CcO5//nv2nAr57/HiK9/hs=);lineShape=1;sketch=1;hachureGap=4;jiggle=2;curveFitting=1;fontFamily=Architects Daughter;fontSource=https%3A%2F%2Ffonts.googleapis.com%2Fcss%3Ffamily%3DArchitects%2BDaughter;fontSize=20;" vertex="1" parent="1">
                    <mxGeometry x="536.1000879786559" y="279.8439228447203" width="95.18581513751951" height="56.69618332020332" as="geometry"/>
                </mxCell>
            </root>
        </mxGraphModel>
    </diagram>
</mxfile>